<svg width="260" height="260" viewBox="0 0 260 260" fill="none" xmlns="http://www.w3.org/2000/svg">
<g clip-path="url(#clip0_1_1076)">
<g clip-path="url(#clip1_1_1076)">
<path d="M-34.3403 9.60719C-9.77117 -48.7998 77.5106 -40.557 111.191 0.519465C144.871 41.596 155.822 67.916 186.201 52.5896C216.58 37.2633 255.322 41.3503 257.506 90.09C259.689 138.83 224.169 196.431 167.671 213.477C111.173 230.522 111.191 290.855 36.4182 278.682C-4.34852 272.041 -5.27283 222.82 0.484329 182.107C6.24149 141.394 -62.8445 77.3475 -34.3403 9.60719Z" fill="#FE724C"/>
<path opacity="0.9" d="M-34.3403 9.60719C-9.77117 -48.7998 77.5106 -40.557 111.191 0.519465C144.871 41.596 155.822 67.916 186.201 52.5896C216.58 37.2633 255.322 41.3503 257.506 90.09C259.689 138.83 224.169 196.431 167.671 213.477C111.173 230.522 111.191 290.855 36.4182 278.682C-4.34852 272.041 -5.27283 222.82 0.484329 182.107C6.24149 141.394 -62.8445 77.3475 -34.3403 9.60719Z" fill="white"/>
<path d="M86.7353 29.1484L74.6584 28.9861C72.8646 28.962 71.3928 30.5654 71.3712 32.5675L71.2258 46.0458C71.2042 48.0478 72.6409 49.6903 74.4347 49.7145L86.5116 49.8768C88.3054 49.9009 89.7772 48.2975 89.7988 46.2954L89.9442 32.8171C89.9658 30.8151 88.5291 29.1726 86.7353 29.1484Z" fill="#FE724C"/>
<path opacity="0.6" d="M85.7414 35.4262C84.4562 33.0388 81.9385 33.9132 80.6269 35.7406C79.3505 33.8837 76.8504 32.9308 75.5123 35.2886C73.2588 39.2676 77.7747 43.05 79.9138 44.5335L80.5213 44.9462C80.6973 44.8479 80.8998 44.7104 81.1463 44.5434C83.3118 43.1188 87.9422 39.4641 85.7414 35.4262Z" fill="white"/>
<path d="M82.4844 48.2276C82.4844 48.2276 79.9843 54.417 74.5001 56.2837C74.5001 56.2837 77.5459 54.3777 77.3786 47.9034L82.4844 48.2276Z" fill="#FE724C"/>
<path d="M18.5482 141.07H22.8001L34.6577 218.694H30.3971L18.5482 141.07Z" fill="#FE724C"/>
<path d="M34.3495 141.07H38.6014L50.459 218.694H46.1984L34.3495 141.07Z" fill="#FE724C"/>
<path d="M50.1509 141.07H54.4116L66.2604 218.694H61.9998L50.1509 141.07Z" fill="#FE724C"/>
<path opacity="0.4" d="M18.5482 141.07H22.8001L34.6577 218.694H30.3971L18.5482 141.07Z" fill="white"/>
<path opacity="0.4" d="M34.3495 141.07H38.6014L50.459 218.694H46.1984L34.3495 141.07Z" fill="white"/>
<path opacity="0.4" d="M50.1509 141.07H54.4116L66.2604 218.694H61.9998L50.1509 141.07Z" fill="white"/>
<path d="M54.9222 220.708L55.2831 237.861L56.9029 315.495H62.2463L63.8484 237.861L64.2093 220.708H54.9222Z" fill="#FE724C"/>
<path opacity="0.4" d="M54.9222 220.708L55.2831 237.861L56.9029 315.495H62.2463L63.8484 237.861L64.2093 220.708H54.9222Z" fill="white"/>
<path opacity="0.2" d="M54.9222 220.708L55.2831 238.343H63.8484L64.2093 220.708H54.9222Z" fill="black"/>
<path d="M25.9075 315.22L30.846 221.916H38.9183L32.008 315.22H25.9075Z" fill="#FE724C"/>
<path opacity="0.4" d="M32.0167 315.22H25.9163L30.397 230.296L30.8371 221.808H38.9095L38.2845 230.296L32.0167 315.22Z" fill="white"/>
<path opacity="0.2" d="M38.9095 221.808L38.2845 230.621H30.397L30.8372 221.808H38.9095Z" fill="black"/>
<path d="M87.1323 315.22L80.2219 221.916H88.2943L93.224 315.22H87.1323Z" fill="#FE724C"/>
<path opacity="0.4" d="M87.1236 315.22L80.847 230.296L80.2308 221.808H88.2944L88.7433 230.296L93.2241 315.22H87.1236Z" fill="white"/>
<path opacity="0.2" d="M80.2308 221.808L80.847 230.621H88.7433L88.2944 221.808H80.2308Z" fill="black"/>
<path d="M92.6166 225.138H26.5236V217.171C26.5236 215.868 26.9874 214.618 27.8128 213.697C28.6382 212.776 29.7578 212.258 30.9251 212.258H88.2151C89.3824 212.258 90.502 212.776 91.3274 213.697C92.1528 214.618 92.6166 215.868 92.6166 217.171V225.138Z" fill="#FE724C"/>
<path d="M25.8987 150.03C32.7562 145.402 42.2723 145.402 51.357 150.03C55.9521 152.279 61.3924 152.918 63.7956 149.686C67.8978 144.911 60.7058 130.793 46.9026 126.323C37.0169 123.159 27.2367 123.159 18.8827 126.323C7.24512 130.793 6.88419 144.911 13.2928 149.686C17.2717 152.918 22.3951 152.279 25.8987 150.03Z" fill="#FE724C"/>
<path opacity="0.2" d="M92.6166 225.138H26.5236V217.171C26.5236 215.868 26.9874 214.618 27.8128 213.697C28.6382 212.776 29.7578 212.258 30.9251 212.258H88.2151C89.3824 212.258 90.502 212.776 91.3274 213.697C92.1528 214.618 92.6166 215.868 92.6166 217.171V225.138Z" fill="black"/>
<path opacity="0.2" d="M25.8987 150.03C32.7562 145.402 42.2723 145.402 51.357 150.03C55.9521 152.279 61.3924 152.918 63.7956 149.686C67.8978 144.911 60.7058 130.793 46.9026 126.323C37.0169 123.159 27.2367 123.159 18.8827 126.323C7.24512 130.793 6.88419 144.911 13.2928 149.686C17.2717 152.918 22.3951 152.279 25.8987 150.03Z" fill="black"/>
<path d="M25.124 225.138H94.0163C94.9935 225.138 95.7857 224.254 95.7857 223.164V220.668C95.7857 219.578 94.9935 218.694 94.0163 218.694H25.124C24.1468 218.694 23.3546 219.578 23.3546 220.668V223.164C23.3546 224.254 24.1468 225.138 25.124 225.138Z" fill="#FE724C"/>
<path opacity="0.6" d="M25.124 225.138H94.0163C94.9935 225.138 95.7857 224.254 95.7857 223.164V220.668C95.7857 219.578 94.9935 218.694 94.0163 218.694H25.124C24.1468 218.694 23.3546 219.578 23.3546 220.668V223.164C23.3546 224.254 24.1468 225.138 25.124 225.138Z" fill="white"/>
<path d="M21.4619 130.184C21.4619 130.184 15.1238 140.009 19.0235 146.886C22.9233 153.763 29.2966 149.745 35.7492 141.875C42.2018 134.006 21.4619 130.184 21.4619 130.184Z" fill="#E4897B"/>
<path d="M101.446 107.224L105.936 108.206L101.446 96.643L103.876 90.2177C103.876 90.2177 117.96 102.567 119.087 113.571C119.571 118.11 111.314 127.433 97.2646 124.712L101.446 107.224Z" fill="#E4897B"/>
<path d="M104.113 106.831L101.147 126.264C101.147 126.264 98.1361 126.932 94.5268 127.364C92.8983 127.571 91.1377 127.728 89.4915 127.748C87.0707 127.748 84.8787 127.561 83.6111 126.765L67.0967 96.9868C67.0967 96.9868 80.1075 97.5174 84.7643 99.1875C89.4211 100.858 104.113 106.831 104.113 106.831Z" fill="#FE724C"/>
<path d="M169.995 306.348L151.658 306.26L138.56 218.694C138.56 218.694 103.752 224.667 75.7413 216.817C71.854 215.8 68.0891 214.27 64.5263 212.258C40.3356 197.905 39.5786 166.25 39.5786 166.25L94.835 165.69L99.1221 174.414C99.1221 174.414 144.818 183.915 158.736 193.631C163.56 197.001 166.395 211.571 168.032 229.176C171.131 262.364 169.995 306.348 169.995 306.348Z" fill="#263238"/>
<path opacity="0.2" d="M169.995 306.348L151.658 306.26L138.559 218.694C138.559 218.694 103.752 224.667 75.7412 216.817C78.4778 204.536 83.0906 192.874 89.3771 182.343C89.3771 182.343 144.634 186.97 168.032 229.216C171.131 262.364 169.995 306.348 169.995 306.348Z" fill="black"/>
<path d="M94.1396 160.758H39.5786V166.25L94.835 165.69L94.1396 160.758Z" fill="black"/>
<path d="M57.114 168.038H59.0595V158.282H57.114V168.038Z" fill="#263238"/>
<path d="M84.7203 168.038H86.6658V158.282H84.7203V168.038Z" fill="#263238"/>
<path d="M69.271 165.945H79.3593V159.795H69.271V165.945Z" fill="white"/>
<path d="M94.1043 160.729H39.5257C39.2792 158.105 39.0855 153.409 38.9447 147.809C38.8919 145.442 38.8391 142.897 38.795 140.303C38.7246 136.079 38.6806 131.648 38.6454 127.384C38.531 114.759 38.5398 103.638 38.5398 103.638C38.5398 103.638 45.5117 96.5644 62.2551 96.6135C69.1425 96.7943 75.8948 98.7835 81.965 102.42C84.6887 110.168 87.0251 118.079 88.9634 126.117C94.1043 147.426 94.1043 160.729 94.1043 160.729Z" fill="#FE724C"/>
<path d="M50.1333 99.5805C52.2812 106.084 63.7427 106.084 63.7427 106.084C63.7427 106.084 72.7482 104.051 71.9823 99.4135C68.7781 96.643 68.1002 96.3974 67.0527 94.3146C66.4809 93.0636 66.2542 91.6517 66.4012 90.257C66.4465 89.4851 66.5525 88.7191 66.7182 87.9679L50.1333 79.8823C52.4925 85.6395 55.2038 95.0612 50.1333 99.5805Z" fill="#E4897B"/>
<path opacity="0.2" d="M54.1035 85.3447C55.0366 92.5167 63.1177 94.1082 67.0527 94.3146C66.4809 93.0636 66.2542 91.6517 66.4012 90.257L54.1035 85.3447Z" fill="black"/>
<path d="M63.3818 58.7398C63.3818 58.7398 73.5317 62.8956 67.3079 75.3433C63.998 81.9651 57.5542 60.803 57.5542 60.803L63.3818 58.7398Z" fill="#263238"/>
<path d="M54.4908 89.363C56.0943 90.8064 58.078 91.6228 60.1373 91.6866C62.1966 91.7505 64.2178 91.0585 65.8907 89.7167C68.0812 88.0261 69.6138 85.4693 70.1778 82.5644C70.257 82.1616 70.3186 81.749 70.3626 81.3363C71.0933 73.6928 68.6637 61.5791 61.0403 59.3391C59.7437 58.9443 58.39 58.8398 57.0571 59.0315C55.7242 59.2233 54.4385 59.7076 53.274 60.4564C52.1096 61.2053 51.0894 62.204 50.2724 63.3949C49.4554 64.5858 48.8576 65.9454 48.5136 67.3953C48.0857 69.1184 48.0344 70.931 48.3639 72.6809C49.7548 80.8156 50.2214 85.6984 54.4908 89.363Z" fill="#E4897B"/>
<path d="M69.0157 73.4668C70.2814 74.0006 71.3397 75.0121 72.007 76.3257C72.6743 77.6393 72.9085 79.1722 72.669 80.6584C71.5686 88.911 63.0473 95.3166 54.4556 89.363C46.7618 84.038 69.0157 73.4668 69.0157 73.4668Z" fill="#E4897B"/>
<path d="M64.5262 72.9952C65.4752 74.9423 66.6601 76.7341 68.0474 78.3201C67.6685 78.703 67.2195 78.9892 66.7315 79.1588C66.2435 79.3285 65.7283 79.3775 65.2216 79.3026L64.5262 72.9952Z" fill="#DE5753"/>
<path d="M68.514 67.631C68.4508 67.6515 68.3837 67.6522 68.3201 67.6332C68.2565 67.6141 68.1987 67.576 68.1531 67.523C67.8539 67.151 67.4805 66.8629 67.063 66.6819C66.6454 66.501 66.1956 66.4324 65.7499 66.4816C65.6628 66.485 65.5777 66.4531 65.51 66.3919C65.4424 66.3306 65.3968 66.2442 65.3818 66.1484C65.3668 66.0527 65.3833 65.9541 65.4283 65.8709C65.4733 65.7877 65.5438 65.7254 65.6267 65.6956C66.1875 65.621 66.7563 65.6981 67.2849 65.9204C67.8135 66.1427 68.2864 66.5037 68.6637 66.9728C68.697 67.0094 68.7234 67.0529 68.7414 67.101C68.7595 67.1491 68.7687 67.2007 68.7687 67.2528C68.7687 67.3049 68.7595 67.3565 68.7414 67.4046C68.7234 67.4526 68.697 67.4962 68.6637 67.5328C68.6202 67.5763 68.5693 67.6097 68.514 67.631Z" fill="#263238"/>
<path d="M57.7391 69.8809C57.679 69.9242 57.6081 69.9448 57.5367 69.9398C57.491 69.9295 57.4476 69.9088 57.4093 69.8792C57.371 69.8495 57.3385 69.8115 57.3138 69.7674C57.2891 69.7233 57.2727 69.674 57.2656 69.6225C57.2585 69.5711 57.2609 69.5186 57.2726 69.4682C57.3955 68.8508 57.6502 68.2757 58.015 67.7916C58.3797 67.3076 58.8438 66.929 59.3677 66.6879C59.4116 66.6709 59.4581 66.6638 59.5045 66.6669C59.5509 66.6701 59.5963 66.6835 59.638 66.7063C59.6797 66.7291 59.717 66.761 59.7477 66.8C59.7783 66.839 59.8018 66.8843 59.8166 66.9335C59.8455 67.0313 59.8397 67.1378 59.8004 67.231C59.7611 67.3242 59.6913 67.397 59.6054 67.4345C59.206 67.6451 58.8549 67.9545 58.5788 68.3393C58.3027 68.724 58.1089 69.174 58.012 69.6549C57.986 69.7142 57.9477 69.7656 57.9002 69.8049C57.8527 69.8443 57.7975 69.8703 57.7391 69.8809Z" fill="#263238"/>
<path d="M52.5982 61.5693L53.4785 62.9938C51.1985 64.3595 52.1844 67.4051 52.8974 68.7314C54.4204 71.5609 53.6369 76.591 51.8411 78.8703C51.8411 78.8703 51.5682 77.5637 50.6263 78.0745C49.6844 78.5854 51.0488 85.3742 53.5137 88.2626C53.5137 88.2626 50.1069 85.8851 47.2987 79.0275C44.7107 72.6809 42.4307 66.3931 45.3093 61.5693H52.5982Z" fill="#263238"/>
<path d="M45.9167 79.8724C46.953 81.6201 48.5672 82.8387 50.4063 83.2619C52.8535 83.8023 53.8746 81.297 53.0472 78.8507C52.2901 76.6696 50.107 73.683 47.7654 74.2823C45.4238 74.8816 44.6755 77.711 45.9167 79.8724Z" fill="#E4897B"/>
<path d="M65.2305 81.6802C62.5896 81.6802 62.0174 79.4893 62.0086 79.4696C61.9871 79.3746 62 79.2739 62.0444 79.1893C62.0889 79.1048 62.1614 79.0431 62.2463 79.0177C62.3314 78.9937 62.4217 79.0081 62.4974 79.0577C62.5732 79.1074 62.6284 79.1883 62.6512 79.283C62.6512 79.3616 63.0914 80.9433 65.2305 80.9433H65.3185C65.3968 80.9576 65.468 81.0026 65.5194 81.07C65.5707 81.1375 65.5989 81.2232 65.5989 81.3117C65.5989 81.4003 65.5707 81.486 65.5194 81.5535C65.468 81.621 65.3968 81.6659 65.3185 81.6802H65.2305Z" fill="#263238"/>
<path d="M60.8466 82.2107C60.7777 82.1985 60.7135 82.1644 60.6617 82.1124C60.6306 82.0786 60.6058 82.0381 60.5889 81.9934C60.572 81.9487 60.5633 81.9006 60.5633 81.8521C60.5633 81.8036 60.572 81.7555 60.5889 81.7108C60.6058 81.6661 60.6306 81.6256 60.6617 81.5917C62.8624 79.0865 61.8765 77.0823 61.8325 77.0037C61.8106 76.9619 61.7965 76.9156 61.7909 76.8676C61.7852 76.8197 61.7882 76.7709 61.7997 76.7242C61.8112 76.6776 61.8309 76.6339 61.8577 76.5959C61.8845 76.5578 61.9178 76.5261 61.9557 76.5026C61.9927 76.4778 62.0336 76.4615 62.0763 76.4545C62.1189 76.4475 62.1624 76.45 62.2041 76.4618C62.2459 76.4737 62.2851 76.4947 62.3195 76.5237C62.354 76.5526 62.3829 76.5888 62.4047 76.6303C62.4575 76.7286 63.6987 79.1847 61.1283 82.1026C61.0924 82.1443 61.0481 82.1759 60.9991 82.1947C60.9501 82.2135 60.8978 82.219 60.8466 82.2107Z" fill="#E4897B"/>
<g opacity="0.2">
<path d="M60.8466 82.2107C60.7777 82.1985 60.7135 82.1644 60.6617 82.1124C60.6306 82.0786 60.6058 82.0381 60.5889 81.9934C60.572 81.9487 60.5633 81.9006 60.5633 81.8521C60.5633 81.8036 60.572 81.7555 60.5889 81.7108C60.6058 81.6661 60.6306 81.6256 60.6617 81.5917C62.8624 79.0865 61.8765 77.0823 61.8325 77.0037C61.8106 76.9619 61.7965 76.9156 61.7909 76.8676C61.7852 76.8197 61.7882 76.7709 61.7997 76.7242C61.8112 76.6776 61.8309 76.6339 61.8577 76.5959C61.8845 76.5578 61.9178 76.5261 61.9557 76.5026C61.9927 76.4778 62.0336 76.4615 62.0763 76.4545C62.1189 76.4475 62.1624 76.45 62.2041 76.4618C62.2459 76.4737 62.2851 76.4947 62.3195 76.5237C62.354 76.5526 62.3829 76.5888 62.4047 76.6303C62.4575 76.7286 63.6987 79.1847 61.1283 82.1026C61.0924 82.1443 61.0481 82.1759 60.9991 82.1947C60.9501 82.2135 60.8978 82.219 60.8466 82.2107Z" fill="black"/>
</g>
<path d="M59.711 73.5651C59.711 73.5651 59.8959 72.5335 60.4681 72.3469C61.0403 72.1602 61.5332 73.123 61.5332 73.123C61.3934 72.9994 61.2307 72.912 61.057 72.8671C60.8832 72.8221 60.7027 72.8207 60.5284 72.863C60.3541 72.9053 60.1904 72.9902 60.0491 73.1116C59.9077 73.233 59.7923 73.3879 59.711 73.5651Z" fill="#263238"/>
<path d="M66.3044 72.3076C66.3044 72.3076 66.4893 71.276 67.0615 71.0893C67.6337 70.9026 68.1267 71.8654 68.1267 71.8654C67.9868 71.7419 67.8242 71.6545 67.6504 71.6095C67.4767 71.5646 67.2961 71.5632 67.1219 71.6055C66.9476 71.6477 66.7839 71.7326 66.6425 71.8541C66.5012 71.9755 66.3857 72.1303 66.3044 72.3076Z" fill="#263238"/>
<path d="M45.3093 64.3693C45.3093 64.3693 42.4043 61.2451 48.8305 57.1483C55.2567 53.0514 64.403 55.1833 66.727 58.7398C69.051 62.2963 63.6812 64.4086 63.4347 63.9468C63.1882 63.4851 63.8132 62.2668 63.8132 62.2668C63.8132 62.2668 60.292 64.9195 59.2973 64.0156C58.3025 63.1117 59.7022 62.1391 59.7022 62.1391C59.7022 62.1391 51.1985 66.7272 45.3093 64.3693Z" fill="#263238"/>
<path d="M39.5785 166.25C39.5785 166.25 33.1699 202.601 50.1421 212.258C67.1143 221.916 95.6976 220.708 95.6976 220.708L127.133 308.195L143.744 306.23C143.744 306.23 132.837 204.939 119.043 192.855C115.311 189.603 74.3151 179.886 74.3151 179.886L39.5785 166.25Z" fill="#263238"/>
<path d="M104.932 92.9883L101.675 84.4409C101.675 84.4409 94.0955 78.949 93.5322 78.7721C92.9688 78.5953 91.349 90.4142 91.93 91.6914C92.511 92.9686 96.6836 95.1693 98.365 95.8177C99.3654 96.2046 100.397 96.481 101.446 96.643L104.932 92.9883Z" fill="#E4897B"/>
<path d="M88.3912 79.1847C88.0646 79.1013 87.7217 79.1634 87.4356 79.358C87.1495 79.5525 86.9428 79.864 86.8594 80.2261C86.7538 80.8254 86.4457 80.7075 86.2872 80.9532C86.1288 81.1988 86.2872 81.7981 86.2872 81.8767C86.2872 81.9553 85.8207 83.2324 86.6218 83.7531C87.4228 84.2738 89.2627 85.1777 90.0285 83.5468C90.7944 81.916 89.5972 79.4009 88.3912 79.1847Z" fill="#FE724C"/>
<path opacity="0.4" d="M88.3912 79.1847C88.0646 79.1013 87.7217 79.1634 87.4356 79.358C87.1495 79.5525 86.9428 79.864 86.8594 80.2261C86.7538 80.8254 86.4457 80.7075 86.2872 80.9532C86.1288 81.1988 86.2872 81.7981 86.2872 81.8767C86.2872 81.9553 85.8207 83.2324 86.6218 83.7531C87.4228 84.2738 89.2627 85.1777 90.0285 83.5468C90.7944 81.916 89.5972 79.4009 88.3912 79.1847Z" fill="white"/>
<path d="M98.0041 86.2879C98.0082 86.572 97.9817 86.8557 97.9248 87.1328C97.2822 90.0802 93.0832 91.5145 88.5584 90.2963C86.7223 89.8425 85.0051 88.9213 83.5407 87.6044C83.4615 87.3459 83.4055 87.0794 83.3735 86.8086C83.4431 86.7354 83.5079 86.6566 83.5671 86.5728C83.7144 86.3896 83.8225 86.1715 83.8835 85.935C83.9445 85.6985 83.9567 85.4497 83.9193 85.2072C83.7432 84.2837 84.8964 83.9496 84.8964 83.9496C84.8912 83.9271 84.8912 83.9034 84.8964 83.8809C84.9051 83.7977 84.9291 83.7174 84.9668 83.6451C85.3101 82.9573 86.4721 82.9475 86.5954 82.9475L87.3965 83.5075C87.5918 83.4687 87.7781 83.3867 87.9446 83.2663C88.1111 83.1459 88.2544 82.9896 88.3659 82.8065C88.4775 82.6234 88.5551 82.4173 88.5942 82.2002C88.6333 81.9832 88.6331 81.7596 88.5937 81.5426C88.5688 81.3882 88.5304 81.2368 88.4792 81.0907C88.5768 80.9899 88.6499 80.8631 88.6914 80.7222C88.733 80.5812 88.7418 80.4308 88.7169 80.2851C88.7166 80.1551 88.6988 80.0259 88.6641 79.9019C88.6089 79.6427 88.5071 79.3987 88.3648 79.1847C89.2018 79.2308 90.0331 79.3656 90.8472 79.5875C94.9846 80.6486 97.96 83.5468 98.0041 86.2879Z" fill="#FE724C"/>
<g opacity="0.6">
<path d="M98.0041 86.2879C98.0082 86.572 97.9817 86.8557 97.9248 87.1328C97.2822 90.0802 93.0832 91.5145 88.5584 90.2963C86.7223 89.8425 85.0051 88.9213 83.5407 87.6044C83.4615 87.3459 83.4055 87.0794 83.3735 86.8086C83.4431 86.7354 83.5079 86.6566 83.5671 86.5728C83.7144 86.3896 83.8225 86.1715 83.8835 85.935C83.9445 85.6985 83.9567 85.4497 83.9193 85.2072C83.7432 84.2837 84.8964 83.9496 84.8964 83.9496C84.8912 83.9271 84.8912 83.9034 84.8964 83.8809C84.9051 83.7977 84.9291 83.7174 84.9668 83.6451C85.3101 82.9573 86.4721 82.9475 86.5954 82.9475L87.3965 83.5075C87.5918 83.4687 87.7781 83.3867 87.9446 83.2663C88.1111 83.1459 88.2544 82.9896 88.3659 82.8065C88.4775 82.6234 88.5551 82.4173 88.5942 82.2002C88.6333 81.9832 88.6331 81.7596 88.5937 81.5426C88.5688 81.3882 88.5304 81.2368 88.4792 81.0907C88.5768 80.9899 88.6499 80.8631 88.6914 80.7222C88.733 80.5812 88.7418 80.4308 88.7169 80.2851C88.7166 80.1551 88.6988 80.0259 88.6641 79.9019C88.6089 79.6427 88.5071 79.3987 88.3648 79.1847C89.2018 79.2308 90.0331 79.3656 90.8472 79.5875C94.9846 80.6486 97.96 83.5468 98.0041 86.2879Z" fill="white"/>
</g>
<path d="M98.004 86.2879C97.2557 88.0268 96.7012 88.9994 95.9529 87.958C95.2047 86.9166 94.8085 88.017 93.761 89.2647C92.7134 90.5124 91.4282 89.5693 90.6623 88.6949C89.8964 87.8205 88.0214 89.4023 86.9827 88.577C85.9439 87.7517 86.0319 87.1917 84.4386 87.0935C84.2656 87.0893 84.0959 87.0401 83.9431 86.9497C83.7902 86.8592 83.6585 86.7302 83.5583 86.5728C83.7055 86.3896 83.8136 86.1715 83.8746 85.935C83.9356 85.6985 83.9478 85.4497 83.9104 85.2072C83.7343 84.2837 84.8875 83.9496 84.8875 83.9496C84.8823 83.9271 84.8823 83.9034 84.8875 83.8809C84.8962 83.7977 84.9202 83.7174 84.958 83.6451C85.3013 82.9573 86.4633 82.9475 86.5865 82.9475L87.3876 83.5075C87.5829 83.4687 87.7693 83.3867 87.9358 83.2663C88.1023 83.1459 88.2455 82.9896 88.3571 82.8065C88.4686 82.6234 88.5462 82.4173 88.5853 82.2002C88.6244 81.9832 88.6243 81.7596 88.5848 81.5426C88.5599 81.3882 88.5216 81.2368 88.4704 81.0907C88.568 80.9899 88.641 80.8631 88.6826 80.7222C88.7242 80.5812 88.7329 80.4308 88.708 80.2851C88.7077 80.1551 88.6899 80.0259 88.6552 79.9019C88.6001 79.6427 88.4982 79.3987 88.3559 79.1847C89.193 79.2308 90.0242 79.3656 90.8384 79.5875C94.9846 80.6486 97.96 83.5468 98.004 86.2879Z" fill="#FE724C"/>
<g opacity="0.2">
<path d="M86.6218 82.9475L87.4228 83.5075C87.1416 83.3475 86.8735 83.1602 86.6218 82.9475Z" fill="black"/>
<path d="M93.8314 84.3033C93.8314 84.4212 93.2504 84.824 91.93 84.7847C91.199 84.759 90.4728 84.6437 89.7645 84.4409C89.0363 84.2577 88.328 83.9876 87.6517 83.6352L87.4229 83.5075C87.6182 83.4687 87.8045 83.3867 87.971 83.2663C88.1375 83.1459 88.2808 82.9896 88.3923 82.8065C88.5039 82.6234 88.5815 82.4173 88.6206 82.2002C88.6597 81.9832 88.6595 81.7596 88.6201 81.5426C89.2139 81.5498 89.8049 81.6355 90.3807 81.7981C92.9335 82.4367 93.849 84.0086 93.8314 84.3033Z" fill="black"/>
</g>
<g opacity="0.2">
<path d="M91.93 84.7847C91.1997 84.7572 90.474 84.6453 89.7645 84.4507C89.0371 84.2603 88.3291 83.9871 87.6517 83.6352C88.3705 83.3679 89.142 83.3305 89.8789 83.5272C90.6439 83.7543 91.3479 84.186 91.93 84.7847Z" fill="black"/>
</g>
<path d="M89.1306 80.4718C89.1052 80.4832 89.0768 80.4832 89.0514 80.4718C89.0255 80.4802 88.998 80.4802 88.9722 80.4718L88.7433 80.236C88.743 80.106 88.7252 79.9769 88.6905 79.8528L89.1218 80.2851C89.1339 80.2964 89.1437 80.3103 89.1507 80.326C89.1578 80.3417 89.1618 80.3588 89.1626 80.3763C89.1634 80.3938 89.161 80.4113 89.1555 80.4278C89.15 80.4442 89.1416 80.4592 89.1306 80.4718Z" fill="white"/>
<path d="M91.1289 80.9138C91.1036 80.9142 91.0791 80.9045 91.0598 80.8865C91.0404 80.8685 91.0274 80.8434 91.0232 80.8156C91.0193 80.8001 91.0182 80.7839 91.0201 80.7679C91.022 80.7519 91.0269 80.7366 91.0343 80.7228C91.0417 80.709 91.0516 80.697 91.0633 80.6876C91.075 80.6783 91.0884 80.6716 91.1025 80.6682L91.8155 80.4717C91.8294 80.4679 91.8438 80.4671 91.8579 80.4694C91.8721 80.4718 91.8857 80.4772 91.8979 80.4854C91.9102 80.4936 91.9209 80.5045 91.9294 80.5173C91.9379 80.5301 91.9441 80.5447 91.9476 80.5601C91.951 80.5756 91.9517 80.5917 91.9496 80.6075C91.9475 80.6233 91.9426 80.6385 91.9353 80.6522C91.9279 80.6658 91.9182 80.6778 91.9067 80.6873C91.8952 80.6968 91.8822 80.7037 91.8683 80.7075L91.1553 80.904L91.1289 80.9138Z" fill="white"/>
<path d="M93.4265 82.4563C93.4039 82.4563 93.3818 82.4488 93.363 82.4348C93.3442 82.4209 93.3295 82.401 93.3208 82.3777L93.1095 81.8373C93.1024 81.8228 93.0983 81.8066 93.0976 81.7901C93.0969 81.7735 93.0996 81.757 93.1056 81.7418C93.1116 81.7266 93.1206 81.7131 93.1319 81.7024C93.1433 81.6917 93.1567 81.6841 93.1712 81.6801C93.1839 81.6736 93.1976 81.6699 93.2116 81.6693C93.2256 81.6687 93.2395 81.6713 93.2526 81.6767C93.2657 81.6822 93.2777 81.6906 93.2879 81.7013C93.2981 81.712 93.3063 81.7248 93.312 81.7391L93.5233 82.2794C93.5355 82.3095 93.5369 82.3437 93.527 82.3748C93.5172 82.406 93.4969 82.4317 93.4705 82.4465L93.4265 82.4563Z" fill="white"/>
<path d="M87.3172 85.3054C87.3033 85.3125 87.2883 85.3162 87.2731 85.3162C87.258 85.3162 87.2429 85.3125 87.2291 85.3054L86.3048 83.9595C86.2844 83.9357 86.2729 83.904 86.2729 83.8711C86.2729 83.8381 86.2844 83.8064 86.3048 83.7826C86.3146 83.7716 86.3263 83.7629 86.3391 83.757C86.352 83.751 86.3657 83.748 86.3796 83.748C86.3935 83.748 86.4073 83.751 86.4201 83.757C86.433 83.7629 86.4446 83.7716 86.4545 83.7826L87.3348 85.1286C87.3552 85.1524 87.3666 85.1841 87.3666 85.217C87.3666 85.25 87.3552 85.2817 87.3348 85.3054C87.3289 85.3063 87.323 85.3063 87.3172 85.3054Z" fill="white"/>
<path d="M85.6358 84.097C85.6302 84.1213 85.6178 84.143 85.6004 84.1589C85.5829 84.1748 85.5614 84.1841 85.539 84.1854H85.4949L84.9139 83.9398C84.9226 83.8566 84.9466 83.7764 84.9844 83.704L85.5742 83.9496C85.5982 83.9624 85.6175 83.9841 85.6287 84.011C85.64 84.0378 85.6425 84.0683 85.6358 84.097Z" fill="white"/>
<path d="M89.4563 85.3349H88.3207C88.2919 85.3324 88.265 85.3179 88.2454 85.2942C88.2259 85.2705 88.215 85.2395 88.2151 85.2072C88.215 85.1909 88.218 85.1747 88.2239 85.1597C88.2297 85.1447 88.2383 85.1313 88.2491 85.1202C88.2598 85.1091 88.2726 85.1006 88.2864 85.0953C88.3003 85.09 88.3149 85.088 88.3295 85.0893H89.4563C89.4867 85.0893 89.5158 85.1028 89.5372 85.1267C89.5587 85.1507 89.5708 85.1832 89.5708 85.217C89.5708 85.2334 89.5678 85.2496 89.562 85.2645C89.5561 85.2795 89.5475 85.293 89.5368 85.3041C89.526 85.3152 89.5133 85.3236 89.4994 85.3289C89.4856 85.3343 89.4709 85.3363 89.4563 85.3349Z" fill="white"/>
<path d="M91.9036 86.5433C91.8668 86.5417 91.8321 86.5241 91.8068 86.4942L91.3842 85.8261C91.3663 85.8029 91.3564 85.7733 91.3564 85.7426C91.3564 85.7119 91.3663 85.6823 91.3842 85.6591C91.4056 85.6363 91.4339 85.6235 91.4635 85.6235C91.493 85.6235 91.5214 85.6363 91.5427 85.6591L91.9652 86.3272C91.9832 86.3504 91.9931 86.38 91.9931 86.4107C91.9931 86.4413 91.9832 86.471 91.9652 86.4942C91.9585 86.5066 91.9495 86.5173 91.9389 86.5257C91.9283 86.5342 91.9163 86.5402 91.9036 86.5433Z" fill="white"/>
<path d="M93.1095 86.3174H93.0655C93.0391 86.3025 93.0188 86.2769 93.009 86.2457C92.9991 86.2146 93.0005 86.1804 93.0127 86.1503L93.2944 85.4626C93.3077 85.4331 93.3307 85.4105 93.3586 85.3995C93.3865 85.3885 93.4171 85.39 93.4441 85.4037C93.4568 85.4101 93.4684 85.4192 93.4779 85.4306C93.4875 85.4419 93.495 85.4553 93.4999 85.4699C93.5048 85.4846 93.5071 85.5002 93.5066 85.5158C93.506 85.5314 93.5028 85.5467 93.4969 85.5609L93.2152 86.2584C93.2034 86.2773 93.1876 86.2926 93.1691 86.3029C93.1506 86.3132 93.1302 86.3182 93.1095 86.3174Z" fill="white"/>
<path d="M94.923 85.3251C94.9048 85.3255 94.8869 85.3201 94.8714 85.3097C94.8558 85.2993 94.8432 85.2842 94.8349 85.2661L94.4652 84.6374C94.4448 84.6136 94.4333 84.5819 94.4333 84.549C94.4333 84.516 94.4448 84.4843 94.4652 84.4605C94.475 84.4495 94.4867 84.4408 94.4995 84.4349C94.5124 84.4289 94.5261 84.4258 94.54 84.4258C94.5539 84.4258 94.5677 84.4289 94.5805 84.4349C94.5934 84.4408 94.605 84.4495 94.6149 84.4605L94.9934 85.0893C95.012 85.1141 95.0222 85.1454 95.0222 85.1777C95.0222 85.2101 95.012 85.2414 94.9934 85.2661L94.923 85.3251Z" fill="white"/>
<path d="M96.3491 84.097H96.3051L95.2575 83.5468C95.2363 83.5291 95.2213 83.5038 95.215 83.4751C95.2087 83.4464 95.2115 83.4162 95.2229 83.3896C95.2343 83.3629 95.2537 83.3415 95.2776 83.329C95.3016 83.3165 95.3287 83.3136 95.3543 83.3209L96.3931 83.8711C96.407 83.8773 96.4196 83.8868 96.43 83.8989C96.4404 83.911 96.4484 83.9254 96.4534 83.9412C96.4584 83.957 96.4603 83.9739 96.459 83.9906C96.4577 84.0073 96.4533 84.0235 96.4459 84.0381C96.4362 84.0569 96.422 84.0724 96.4049 84.0828C96.3878 84.0932 96.3685 84.0981 96.3491 84.097Z" fill="white"/>
<path d="M95.8651 84.9714C95.8381 84.9587 95.8157 84.9364 95.8013 84.9079C95.7869 84.8795 95.7814 84.8465 95.7857 84.8142L95.8827 84.3918C95.8844 84.3752 95.8895 84.3594 95.8975 84.3454C95.9056 84.3314 95.9165 84.3196 95.9293 84.3111C95.9421 84.3025 95.9565 84.2974 95.9713 84.296C95.9862 84.2947 96.0012 84.2972 96.0151 84.3033C96.0424 84.3125 96.0657 84.3327 96.0804 84.3599C96.095 84.3872 96.1001 84.4195 96.0945 84.4507L96.0063 84.8732C95.998 84.9062 95.9789 84.9346 95.9528 84.9527C95.9267 84.9709 95.8954 84.9776 95.8651 84.9714Z" fill="white"/>
<path d="M94.6765 82.6528C94.6573 82.652 94.6386 82.6463 94.6218 82.6361C94.605 82.6259 94.5906 82.6114 94.5796 82.5939C94.5667 82.565 94.5641 82.5317 94.5722 82.5007C94.5804 82.4697 94.5988 82.4433 94.6237 82.4268L94.8966 82.25C94.9173 82.2299 94.9439 82.2189 94.9714 82.2189C94.9989 82.2189 95.0254 82.2299 95.0462 82.25C95.0561 82.2609 95.0639 82.274 95.0692 82.2883C95.0745 82.3026 95.0773 82.318 95.0773 82.3335C95.0773 82.349 95.0745 82.3644 95.0692 82.3787C95.0639 82.393 95.0561 82.406 95.0462 82.417L94.7645 82.5939L94.6765 82.6528Z" fill="white"/>
<path d="M93.6817 81.2675L92.8014 80.9728C92.7871 80.9684 92.7737 80.9607 92.7622 80.9502C92.7507 80.9397 92.7414 80.9266 92.7347 80.9118C92.7281 80.8969 92.7243 80.8807 92.7237 80.8641C92.723 80.8476 92.7255 80.831 92.731 80.8156C92.735 80.8008 92.7416 80.7869 92.7505 80.7749C92.7593 80.7629 92.7701 80.753 92.7824 80.7457C92.7947 80.7384 92.8081 80.7339 92.822 80.7324C92.8358 80.7309 92.8497 80.7325 92.863 80.737L93.7433 81.0317C93.7713 81.0429 93.7947 81.0649 93.8093 81.0938C93.8238 81.1227 93.8285 81.1565 93.8226 81.1889C93.8126 81.2197 93.7924 81.2449 93.7662 81.2596C93.74 81.2742 93.7098 81.277 93.6817 81.2675Z" fill="white"/>
<path d="M90.4334 80.3342H90.3894L89.826 80.0493C89.8113 80.0441 89.7978 80.0354 89.7865 80.0237C89.7751 80.012 89.7662 79.9978 89.7603 79.9818C89.7545 79.9659 89.7518 79.9488 89.7525 79.9316C89.7532 79.9144 89.7573 79.8976 89.7644 79.8823C89.7777 79.8528 89.8007 79.8302 89.8286 79.8192C89.8565 79.8082 89.8871 79.8097 89.9141 79.8233L90.4775 80.1083C90.5039 80.1231 90.5242 80.1488 90.534 80.1799C90.5439 80.211 90.5425 80.2452 90.5303 80.2753C90.5206 80.2941 90.5064 80.3096 90.4893 80.32C90.4722 80.3304 90.4529 80.3353 90.4334 80.3342Z" fill="white"/>
<path d="M89.5619 80.7861C89.5407 80.785 89.52 80.7782 89.5016 80.7662C89.4832 80.7542 89.4676 80.7375 89.4563 80.7173C89.4441 80.6873 89.4427 80.6531 89.4526 80.622C89.4624 80.5908 89.4827 80.5651 89.5091 80.5503L89.8701 80.3538C89.8825 80.3457 89.8964 80.3408 89.9108 80.3394C89.9251 80.338 89.9396 80.3402 89.9531 80.3458C89.9666 80.3515 89.9788 80.3604 89.9888 80.372C89.9988 80.3836 90.0063 80.3975 90.0109 80.4128C90.0282 80.4344 90.0378 80.4624 90.0378 80.4914C90.0378 80.5204 90.0282 80.5484 90.0109 80.57L89.65 80.7665L89.5619 80.7861Z" fill="white"/>
<path d="M85.856 85.1875L84.8876 85.1286C84.8581 85.1238 84.8311 85.1073 84.8116 85.082C84.7922 85.0567 84.7817 85.0244 84.782 84.991C84.7831 84.9755 84.7869 84.9604 84.7933 84.9466C84.7997 84.9328 84.8084 84.9205 84.819 84.9104C84.8297 84.9004 84.842 84.8928 84.8553 84.8881C84.8686 84.8834 84.8825 84.8816 84.8964 84.883L85.8736 84.9419C85.8882 84.9419 85.9027 84.9452 85.9161 84.9517C85.9295 84.9583 85.9416 84.9678 85.9515 84.9798C85.9615 84.9918 85.9691 85.006 85.9738 85.0215C85.9786 85.0369 85.9804 85.0533 85.9792 85.0696C85.9781 85.0864 85.974 85.1028 85.9672 85.1178C85.9604 85.1329 85.951 85.1462 85.9395 85.1572C85.9281 85.1681 85.9148 85.1765 85.9005 85.1817C85.8861 85.1869 85.871 85.1889 85.856 85.1875Z" fill="white"/>
<path d="M87.5813 86.4844H87.5284L86.877 86.0423C86.8672 86.0313 86.8594 86.0183 86.854 86.004C86.8487 85.9897 86.8459 85.9743 86.8459 85.9588C86.8459 85.9433 86.8487 85.9279 86.854 85.9136C86.8594 85.8993 86.8672 85.8862 86.877 85.8753C86.8868 85.8643 86.8985 85.8556 86.9113 85.8496C86.9242 85.8437 86.9379 85.8406 86.9518 85.8406C86.9658 85.8406 86.9795 85.8437 86.9924 85.8496C87.0052 85.8556 87.0169 85.8643 87.0267 85.8753L87.6781 86.3174C87.6879 86.3283 87.6958 86.3414 87.7011 86.3557C87.7064 86.37 87.7092 86.3854 87.7092 86.4009C87.7092 86.4164 87.7064 86.4318 87.7011 86.4461C87.6958 86.4604 87.6879 86.4734 87.6781 86.4844C87.6634 86.4939 87.6467 86.4989 87.6297 86.4989C87.6127 86.4989 87.596 86.4939 87.5813 86.4844Z" fill="white"/>
<path d="M89.8704 86.7595C89.8445 86.7586 89.8194 86.7487 89.7988 86.731C89.7782 86.7134 89.7631 86.689 89.7557 86.6612L89.6852 86.2388C89.6826 86.2233 89.6829 86.2074 89.686 86.192C89.6891 86.1766 89.695 86.1621 89.7032 86.1493C89.7114 86.1364 89.7219 86.1256 89.7339 86.1173C89.746 86.1091 89.7594 86.1036 89.7734 86.1012C89.8026 86.0954 89.8327 86.1023 89.8573 86.1207C89.882 86.139 89.8993 86.1672 89.9057 86.1995L89.9763 86.6121C89.9815 86.6446 89.9753 86.6781 89.9588 86.7056C89.9424 86.7331 89.917 86.7524 89.8881 86.7595H89.8704Z" fill="white"/>
<path d="M90.944 87.1132C90.9318 87.1201 90.9182 87.1237 90.9044 87.1237C90.8907 87.1237 90.8771 87.1201 90.8648 87.1132C90.855 87.1022 90.8472 87.0892 90.8418 87.0749C90.8365 87.0605 90.8337 87.0452 90.8337 87.0297C90.8337 87.0141 90.8365 86.9988 90.8418 86.9844C90.8472 86.9701 90.855 86.9571 90.8648 86.9461L91.2169 86.5728C91.2268 86.5618 91.2384 86.5531 91.2513 86.5472C91.2641 86.5412 91.2779 86.5381 91.2918 86.5381C91.3057 86.5381 91.3194 86.5412 91.3323 86.5472C91.3451 86.5531 91.3568 86.5618 91.3666 86.5728C91.387 86.5966 91.3984 86.6283 91.3984 86.6612C91.3984 86.6942 91.387 86.7259 91.3666 86.7497L91.0145 87.123C90.9907 87.1298 90.9656 87.1263 90.944 87.1132Z" fill="white"/>
<path d="M93.224 87.457L92.4317 87.2507C92.4048 87.238 92.3824 87.2157 92.368 87.1872C92.3537 87.1588 92.3482 87.1258 92.3525 87.0935C92.3622 87.0642 92.3806 87.0395 92.4046 87.0235C92.4286 87.0074 92.4568 87.0009 92.4845 87.0051L93.2768 87.2212C93.3057 87.2283 93.331 87.2476 93.3474 87.2751C93.3638 87.3026 93.3701 87.3361 93.3648 87.3686C93.3548 87.3998 93.3351 87.4259 93.3092 87.4422C93.2833 87.4584 93.2531 87.4637 93.224 87.457Z" fill="white"/>
<path d="M94.1043 86.5728C94.0806 86.572 94.0578 86.5631 94.0389 86.5473C94.02 86.5315 94.0059 86.5095 93.9986 86.4844C93.9947 86.4689 93.9936 86.4527 93.9955 86.4367C93.9974 86.4207 94.0023 86.4054 94.0097 86.3916C94.0171 86.3777 94.027 86.3658 94.0387 86.3564C94.0504 86.347 94.0638 86.3404 94.0779 86.337L94.7029 86.1209C94.7309 86.1114 94.7611 86.1142 94.7873 86.1288C94.8135 86.1434 94.8337 86.1687 94.8437 86.1995C94.8518 86.232 94.8481 86.2669 94.8332 86.2963C94.8184 86.3258 94.7937 86.3475 94.7645 86.3567L94.1395 86.5728H94.1043Z" fill="white"/>
<path d="M95.8649 86.0619C95.8433 86.0628 95.8219 86.0568 95.8032 86.0446C95.7845 86.0324 95.7693 86.0146 95.7593 85.9932C95.7534 85.979 95.7501 85.9637 95.7496 85.948C95.7491 85.9324 95.7513 85.9169 95.7562 85.9022C95.7611 85.8876 95.7686 85.8742 95.7782 85.8629C95.7878 85.8515 95.7993 85.8423 95.8121 85.836L96.4547 85.4823C96.4816 85.4686 96.5123 85.4671 96.5402 85.4781C96.5681 85.4891 96.5911 85.5117 96.6044 85.5412C96.6146 85.5716 96.6149 85.6049 96.6053 85.6355C96.5956 85.6661 96.5766 85.6918 96.5515 85.7082L95.9089 86.0521L95.8649 86.0619Z" fill="white"/>
<path d="M49.1298 98.323C49.1298 98.323 38.707 98.9419 31.9111 108.786C25.1152 118.63 19.4373 132.807 19.4373 132.807L35.7404 143.457L48.6544 130.086C48.6544 130.086 45.4589 102.194 49.1298 98.323Z" fill="#FE724C"/>
<path opacity="0.6" d="M94.1044 160.729H39.5257C39.2881 158.174 39.0944 153.665 38.9536 148.261C38.9536 148.114 38.9536 147.957 38.9536 147.809C38.9007 145.442 38.8479 142.897 38.8039 140.303C39.6842 136.58 40.5645 133.004 41.5064 129.654C43.9287 120.742 46.7941 111.988 50.0893 103.432C64.6407 113.738 73.4877 102.538 73.4877 102.538C82.4316 109.798 87.3965 121.794 88.9722 126.117C94.1044 147.426 94.1044 160.729 94.1044 160.729Z" fill="white"/>
<path d="M59.7726 112.392C59.7726 115.437 55.9873 117.913 51.3305 117.913C47.0699 117.913 43.5399 115.84 42.9677 113.158C42.9071 112.908 42.8774 112.65 42.8796 112.392C42.8796 109.336 46.6649 106.861 51.3305 106.861C55.5472 106.861 59.0595 108.894 59.6758 111.547C59.7388 111.823 59.7713 112.107 59.7726 112.392Z" fill="#263238"/>
<path d="M59.667 111.547C59.306 113.433 58.9715 114.494 58.0208 113.708C57.0701 112.922 56.9204 114.062 56.1634 115.555C55.4063 117.049 53.9626 116.459 53.0295 115.811C52.0964 115.162 50.6527 117.176 49.4291 116.656C48.2055 116.135 48.2143 115.555 46.6473 115.879C45.0804 116.204 44.7899 113.089 43.5663 113.433C43.4526 113.481 43.327 113.479 43.2145 113.428C43.102 113.377 43.0108 113.281 42.9589 113.158C42.8983 112.908 42.8687 112.65 42.8708 112.392C42.8708 109.336 46.6561 106.861 51.3217 106.861C55.5384 106.861 59.0508 108.894 59.667 111.547Z" fill="#263238"/>
<path opacity="0.2" d="M59.667 111.547C59.306 113.433 58.9715 114.494 58.0208 113.708C57.0701 112.922 56.9204 114.062 56.1634 115.555C55.4063 117.049 53.9626 116.459 53.0295 115.811C52.0964 115.162 50.6527 117.176 49.4291 116.656C48.2055 116.135 48.2143 115.555 46.6473 115.879C45.0804 116.204 44.7899 113.089 43.5663 113.433C43.4526 113.481 43.327 113.479 43.2145 113.428C43.102 113.377 43.0108 113.281 42.9589 113.158C42.8983 112.908 42.8687 112.65 42.8708 112.392C42.8708 109.336 46.6561 106.861 51.3217 106.861C55.5384 106.861 59.0508 108.894 59.667 111.547Z" fill="white"/>
<path opacity="0.2" d="M55.1951 110.712C55.1951 110.83 54.7373 111.37 53.4345 111.694C52.7195 111.86 51.9904 111.939 51.2601 111.93C50.5124 111.939 49.7659 111.86 49.033 111.694C47.6861 111.38 47.1755 110.83 47.1755 110.712C47.1755 110.417 48.672 109.13 51.3041 109.13C53.9362 109.13 55.1511 110.417 55.1951 110.712Z" fill="black"/>
<path opacity="0.2" d="M53.4432 111.675C52.7282 111.841 51.9991 111.92 51.2688 111.91C50.5211 111.919 49.7746 111.84 49.0417 111.675C49.6822 111.224 50.4239 110.986 51.1808 110.987C51.9738 111.007 52.7504 111.243 53.4432 111.675Z" fill="black"/>
<path d="M45.6877 111.105C45.6705 111.106 45.6532 111.102 45.6377 111.094C45.6222 111.085 45.6091 111.072 45.5997 111.056L45.0187 110.221C45.0001 110.196 44.9899 110.164 44.9899 110.132C44.9899 110.1 45.0001 110.068 45.0187 110.044C45.04 110.021 45.0684 110.008 45.0979 110.008C45.1275 110.008 45.1558 110.021 45.1772 110.044L45.7582 110.879C45.7768 110.904 45.787 110.935 45.787 110.967C45.787 111 45.7768 111.031 45.7582 111.056L45.6877 111.105Z" fill="white"/>
<path d="M46.4097 109.258H45.7759C45.7455 109.258 45.7164 109.244 45.695 109.22C45.6735 109.196 45.6614 109.164 45.6614 109.13C45.6614 109.114 45.6644 109.097 45.6702 109.082C45.6761 109.067 45.6847 109.054 45.6954 109.043C45.7062 109.032 45.7189 109.023 45.7327 109.018C45.7466 109.013 45.7613 109.011 45.7759 109.012H46.4097C46.4243 109.011 46.439 109.013 46.4528 109.018C46.4667 109.023 46.4794 109.032 46.4901 109.043C46.5009 109.054 46.5095 109.067 46.5153 109.082C46.5212 109.097 46.5242 109.114 46.5241 109.13C46.5241 109.164 46.5121 109.196 46.4906 109.22C46.4692 109.244 46.4401 109.258 46.4097 109.258Z" fill="white"/>
<path d="M47.5012 108.894H47.4484C47.422 108.879 47.4017 108.854 47.3918 108.823C47.382 108.791 47.3833 108.757 47.3956 108.727L47.5804 108.246C47.5853 108.231 47.5929 108.217 47.6027 108.205C47.6125 108.193 47.6244 108.184 47.6376 108.177C47.6508 108.171 47.665 108.168 47.6794 108.168C47.6938 108.168 47.708 108.171 47.7213 108.177C47.736 108.182 47.7495 108.191 47.7609 108.203C47.7722 108.214 47.7811 108.229 47.787 108.244C47.7929 108.26 47.7956 108.278 47.7948 108.295C47.7941 108.312 47.7901 108.329 47.7829 108.344L47.5981 108.825C47.5881 108.845 47.5741 108.861 47.5572 108.873C47.5404 108.885 47.5211 108.892 47.5012 108.894Z" fill="white"/>
<path d="M49.7196 108.275H49.6668L49.165 107.971C49.1551 107.96 49.1473 107.947 49.142 107.932C49.1367 107.918 49.1339 107.903 49.1339 107.887C49.1339 107.872 49.1367 107.856 49.142 107.842C49.1473 107.828 49.1551 107.815 49.165 107.804C49.1781 107.777 49.2001 107.756 49.2264 107.747C49.2528 107.738 49.2813 107.741 49.3058 107.755L49.8164 108.059C49.8296 108.066 49.8413 108.076 49.8508 108.089C49.8602 108.102 49.8673 108.116 49.8714 108.132C49.8756 108.148 49.8767 108.164 49.8748 108.18C49.8729 108.197 49.868 108.212 49.8604 108.226C49.8549 108.241 49.8467 108.253 49.8363 108.264C49.8259 108.275 49.8136 108.282 49.8002 108.287C49.7868 108.292 49.7726 108.293 49.7587 108.291C49.7448 108.289 49.7314 108.284 49.7196 108.275Z" fill="white"/>
<path d="M51.8499 108.118C51.8295 108.118 51.8096 108.112 51.7924 108.1C51.7752 108.087 51.7615 108.07 51.7531 108.049C51.7458 108.035 51.7413 108.02 51.7401 108.004C51.7389 107.988 51.7409 107.972 51.7459 107.957C51.751 107.942 51.759 107.928 51.7694 107.917C51.7797 107.906 51.7922 107.897 51.8059 107.892L52.4573 107.509C52.483 107.495 52.5127 107.492 52.54 107.502C52.5672 107.513 52.5897 107.534 52.6026 107.563C52.6154 107.592 52.6175 107.625 52.6084 107.655C52.5994 107.686 52.5798 107.711 52.5541 107.725L51.9027 108.108L51.8499 108.118Z" fill="white"/>
<path d="M54.3764 109.022C54.3427 109.018 54.3114 109 54.2883 108.973L53.9714 108.501C53.951 108.477 53.9396 108.446 53.9396 108.413C53.9396 108.38 53.951 108.348 53.9714 108.324C53.9813 108.313 53.9929 108.305 54.0057 108.299C54.0186 108.293 54.0324 108.29 54.0463 108.29C54.0602 108.29 54.0739 108.293 54.0868 108.299C54.0996 108.305 54.1113 108.313 54.1211 108.324L54.438 108.796C54.4478 108.807 54.4557 108.82 54.461 108.834C54.4663 108.849 54.4691 108.864 54.4691 108.879C54.4691 108.895 54.4663 108.91 54.461 108.925C54.4557 108.939 54.4478 108.952 54.438 108.963C54.4322 108.977 54.4236 108.99 54.413 109C54.4023 109.01 54.3898 109.018 54.3764 109.022Z" fill="white"/>
<path d="M49.0417 113.394C49.0191 113.404 48.994 113.404 48.9713 113.394L47.7917 112.323C47.7807 112.313 47.7717 112.3 47.7651 112.286C47.7585 112.272 47.7544 112.256 47.7532 112.24C47.752 112.224 47.7536 112.208 47.7579 112.193C47.7623 112.177 47.7693 112.163 47.7785 112.151C47.7878 112.139 47.7991 112.129 47.8118 112.121C47.8246 112.114 47.8385 112.109 47.8528 112.108C47.8671 112.107 47.8815 112.108 47.8952 112.113C47.9089 112.118 47.9216 112.126 47.9326 112.136L49.1122 113.207C49.122 113.218 49.1298 113.231 49.1352 113.245C49.1405 113.26 49.1432 113.275 49.1432 113.291C49.1432 113.306 49.1405 113.322 49.1352 113.336C49.1298 113.35 49.122 113.363 49.1122 113.374C49.091 113.388 49.0665 113.395 49.0417 113.394Z" fill="white"/>
<path d="M47.0699 112.716L46.1896 112.608C46.1657 112.6 46.1446 112.584 46.1296 112.562C46.1147 112.54 46.1066 112.513 46.1066 112.485C46.1066 112.457 46.1147 112.43 46.1296 112.408C46.1446 112.386 46.1657 112.37 46.1896 112.362L47.0699 112.48C47.0846 112.481 47.099 112.486 47.112 112.494C47.1251 112.501 47.1365 112.512 47.1457 112.525C47.1548 112.538 47.1614 112.553 47.165 112.569C47.1686 112.585 47.1692 112.601 47.1667 112.618C47.1615 112.643 47.1494 112.666 47.1321 112.684C47.1148 112.701 47.0931 112.713 47.0699 112.716Z" fill="white"/>
<path d="M45.5117 112.028C45.4918 112.037 45.4699 112.037 45.4501 112.028L44.8427 111.566C44.8328 111.556 44.825 111.543 44.8197 111.528C44.8143 111.514 44.8116 111.498 44.8116 111.483C44.8116 111.467 44.8143 111.452 44.8197 111.438C44.825 111.423 44.8328 111.41 44.8427 111.399C44.8634 111.379 44.89 111.368 44.9175 111.368C44.945 111.368 44.9715 111.379 44.9923 111.399L45.5997 111.861C45.6183 111.886 45.6286 111.917 45.6286 111.95C45.6286 111.982 45.6183 112.013 45.5997 112.038C45.5702 112.045 45.5393 112.042 45.5117 112.028Z" fill="white"/>
<path d="M50.0277 113.148C50.0025 113.149 49.9779 113.139 49.9586 113.121C49.9392 113.103 49.9262 113.078 49.922 113.05C49.9181 113.034 49.917 113.018 49.9189 113.002C49.9208 112.986 49.9257 112.971 49.9331 112.957C49.9405 112.943 49.9504 112.931 49.9621 112.922C49.9738 112.913 49.9872 112.906 50.0013 112.903L51.1016 112.618C51.1155 112.612 51.1304 112.609 51.1453 112.61C51.1601 112.612 51.1745 112.617 51.1873 112.625C51.2 112.634 51.2109 112.646 51.2189 112.66C51.227 112.674 51.232 112.69 51.2337 112.706C51.2376 112.722 51.2387 112.738 51.2368 112.754C51.2349 112.77 51.2301 112.785 51.2226 112.799C51.2152 112.813 51.2053 112.825 51.1936 112.834C51.1819 112.843 51.1686 112.85 51.1545 112.853L50.0541 113.148H50.0277Z" fill="white"/>
<path d="M53.7602 113.394C53.7343 113.402 53.7068 113.402 53.6809 113.394L53.1351 112.854C53.1253 112.843 53.1175 112.83 53.1122 112.815C53.1068 112.801 53.1041 112.786 53.1041 112.77C53.1041 112.754 53.1068 112.739 53.1122 112.725C53.1175 112.71 53.1253 112.697 53.1351 112.687C53.1573 112.666 53.1854 112.654 53.2144 112.654C53.2433 112.654 53.2714 112.666 53.2936 112.687L53.8482 113.227C53.858 113.238 53.8659 113.251 53.8712 113.265C53.8765 113.279 53.8793 113.295 53.8793 113.31C53.8793 113.326 53.8765 113.341 53.8712 113.356C53.8659 113.37 53.858 113.383 53.8482 113.394C53.8198 113.406 53.7885 113.406 53.7602 113.394Z" fill="white"/>
<path d="M54.8871 112.854C54.8722 112.851 54.8579 112.846 54.8451 112.837C54.8323 112.828 54.8214 112.816 54.8131 112.802C54.8047 112.788 54.7991 112.772 54.7967 112.756C54.7942 112.739 54.795 112.722 54.7989 112.706L54.9312 111.969C54.9334 111.954 54.9383 111.939 54.9457 111.925C54.9531 111.912 54.9628 111.9 54.9743 111.891C54.9858 111.882 54.9989 111.875 55.0127 111.872C55.0265 111.869 55.0408 111.868 55.0547 111.871C55.0687 111.873 55.0821 111.879 55.0942 111.887C55.1062 111.895 55.1167 111.906 55.1249 111.919C55.1331 111.932 55.139 111.946 55.1421 111.962C55.1452 111.977 55.1455 111.993 55.1429 112.009L55.0106 112.755C55.0085 112.771 55.0036 112.786 54.9962 112.799C54.9888 112.813 54.979 112.824 54.9675 112.833C54.956 112.843 54.9429 112.849 54.9291 112.853C54.9153 112.856 54.901 112.856 54.8871 112.854Z" fill="white"/>
<path d="M56.4363 111.419C56.4254 111.425 56.4133 111.428 56.4011 111.428C56.3889 111.428 56.3768 111.425 56.3659 111.419L55.8729 110.908C55.8571 110.885 55.849 110.856 55.8501 110.826C55.8513 110.797 55.8615 110.768 55.8792 110.746C55.8968 110.724 55.9208 110.71 55.9469 110.705C55.973 110.701 55.9998 110.707 56.0226 110.722L56.5155 111.242C56.5342 111.267 56.5444 111.298 56.5444 111.331C56.5444 111.363 56.5342 111.394 56.5155 111.419C56.4896 111.427 56.4623 111.427 56.4363 111.419Z" fill="white"/>
<path d="M57.5719 109.857L56.4363 109.602C56.4194 109.602 56.4026 109.597 56.3873 109.589C56.372 109.581 56.3585 109.569 56.3478 109.555C56.337 109.54 56.3294 109.523 56.3253 109.505C56.3212 109.486 56.3207 109.467 56.3241 109.449C56.3274 109.43 56.3343 109.413 56.3444 109.398C56.3546 109.382 56.3675 109.37 56.3825 109.361C56.3974 109.352 56.414 109.347 56.4309 109.346C56.4478 109.345 56.4647 109.349 56.4803 109.356L57.6071 109.621C57.621 109.624 57.6344 109.629 57.6465 109.637C57.6585 109.646 57.6689 109.656 57.6771 109.669C57.6853 109.682 57.6911 109.697 57.6942 109.712C57.6973 109.727 57.6976 109.743 57.6951 109.759C57.693 109.774 57.6881 109.789 57.6807 109.803C57.6733 109.816 57.6636 109.828 57.6521 109.837C57.6406 109.846 57.6276 109.853 57.6138 109.856C57.6 109.859 57.5858 109.86 57.5719 109.857Z" fill="white"/>
<path d="M57.264 110.83C57.2359 110.83 57.209 110.817 57.1891 110.795C57.1693 110.773 57.1581 110.743 57.1581 110.712V110.27C57.1581 110.238 57.1693 110.208 57.1891 110.186C57.209 110.164 57.2359 110.152 57.264 110.152C57.2786 110.15 57.2934 110.152 57.3072 110.158C57.3211 110.163 57.3338 110.172 57.3446 110.183C57.3554 110.194 57.364 110.207 57.3699 110.222C57.3757 110.237 57.3787 110.253 57.3787 110.27V110.712C57.3787 110.728 57.3757 110.744 57.3699 110.759C57.364 110.774 57.3554 110.788 57.3446 110.799C57.3338 110.81 57.3211 110.818 57.3072 110.824C57.2934 110.829 57.2786 110.831 57.264 110.83Z" fill="white"/>
<path d="M55.644 108.894C55.6218 108.894 55.6003 108.886 55.5821 108.872C55.5639 108.857 55.5497 108.838 55.5414 108.815C55.533 108.792 55.5307 108.767 55.5349 108.743C55.539 108.718 55.5494 108.696 55.5647 108.678L55.8024 108.432C55.8234 108.41 55.8515 108.398 55.8804 108.399C55.9092 108.4 55.9366 108.414 55.9565 108.437C55.9763 108.461 55.987 108.492 55.9862 108.524C55.9854 108.557 55.9731 108.587 55.9521 108.609L55.7144 108.855C55.6963 108.878 55.6711 108.892 55.644 108.894Z" fill="white"/>
<path d="M54.3764 107.804L53.4961 107.735C53.4681 107.735 53.4412 107.723 53.4214 107.7C53.4016 107.678 53.3904 107.648 53.3904 107.617C53.3904 107.586 53.4016 107.556 53.4214 107.534C53.4412 107.512 53.4681 107.499 53.4961 107.499L54.3764 107.558C54.3934 107.553 54.4113 107.552 54.4287 107.555C54.4462 107.559 54.4626 107.567 54.4767 107.579C54.4909 107.591 54.5023 107.606 54.5102 107.624C54.5181 107.642 54.5222 107.661 54.5222 107.681C54.5222 107.701 54.5181 107.72 54.5102 107.738C54.5023 107.756 54.4909 107.771 54.4767 107.783C54.4626 107.795 54.4462 107.803 54.4287 107.806C54.4113 107.81 54.3934 107.809 54.3764 107.804Z" fill="white"/>
<path d="M51.0312 107.735L50.4238 107.607C50.3949 107.6 50.3696 107.581 50.3532 107.553C50.3368 107.526 50.3306 107.492 50.3358 107.46C50.3389 107.444 50.3448 107.429 50.3532 107.416C50.3616 107.403 50.3723 107.392 50.3847 107.384C50.397 107.375 50.4108 107.37 50.4251 107.368C50.4394 107.366 50.454 107.367 50.4678 107.371L51.0752 107.499C51.0892 107.502 51.1026 107.507 51.1146 107.515C51.1267 107.523 51.1371 107.534 51.1453 107.547C51.1535 107.56 51.1593 107.575 51.1624 107.59C51.1655 107.605 51.1658 107.621 51.1633 107.637C51.1569 107.669 51.1396 107.697 51.115 107.715C51.0904 107.734 51.0604 107.741 51.0312 107.735Z" fill="white"/>
<path d="M50.2742 108.403C50.2602 108.409 50.2453 108.413 50.2301 108.413C50.215 108.413 50.2001 108.409 50.1861 108.403C50.1675 108.378 50.1573 108.347 50.1573 108.315C50.1573 108.282 50.1675 108.251 50.1861 108.226L50.4942 107.941C50.5164 107.92 50.5451 107.91 50.574 107.913C50.6029 107.916 50.6296 107.931 50.6483 107.956C50.667 107.981 50.6761 108.013 50.6736 108.045C50.6711 108.077 50.6573 108.107 50.6351 108.128L50.327 108.413C50.3089 108.415 50.2906 108.412 50.2742 108.403Z" fill="white"/>
<path d="M47.5981 109.474C47.5775 109.475 47.557 109.47 47.5396 109.457C47.5221 109.445 47.5087 109.427 47.5012 109.405C47.4936 109.391 47.4887 109.375 47.4868 109.359C47.485 109.343 47.4861 109.326 47.4903 109.311C47.4944 109.295 47.5014 109.28 47.5109 109.268C47.5204 109.255 47.5321 109.245 47.5453 109.238L48.4784 108.658C48.5028 108.652 48.5283 108.655 48.5512 108.666C48.574 108.678 48.5929 108.697 48.6049 108.722C48.6169 108.746 48.6213 108.774 48.6176 108.802C48.6138 108.83 48.602 108.855 48.584 108.875L47.6509 109.454L47.5981 109.474Z" fill="white"/>
<path d="M44.2529 110.751C44.2253 110.74 44.2027 110.717 44.1896 110.688C44.1765 110.659 44.1739 110.625 44.1824 110.594L44.3673 109.886C44.3755 109.854 44.395 109.826 44.4214 109.81C44.4478 109.793 44.479 109.789 44.5082 109.798C44.5357 109.809 44.5583 109.832 44.5714 109.861C44.5845 109.89 44.5871 109.924 44.5786 109.955L44.3937 110.663C44.3855 110.695 44.3661 110.723 44.3397 110.739C44.3133 110.756 44.282 110.76 44.2529 110.751Z" fill="white"/>
<path d="M46.6385 113.846C46.6133 113.846 46.5888 113.836 46.5694 113.818C46.55 113.8 46.5371 113.775 46.5329 113.748C46.529 113.731 46.5283 113.714 46.5307 113.698C46.5331 113.681 46.5387 113.666 46.547 113.652C46.5554 113.638 46.5663 113.626 46.579 113.617C46.5918 113.608 46.606 113.602 46.6209 113.6L47.5804 113.404C47.5943 113.401 47.6086 113.401 47.6224 113.405C47.6362 113.408 47.6492 113.415 47.6607 113.424C47.6722 113.433 47.6819 113.445 47.6893 113.458C47.6967 113.471 47.7016 113.486 47.7037 113.502C47.7089 113.534 47.7027 113.568 47.6863 113.595C47.6699 113.623 47.6446 113.642 47.6157 113.649L46.6561 113.846H46.6385Z" fill="white"/>
<path d="M49.5435 114.465L48.8129 114.209C48.7865 114.196 48.7651 114.174 48.7522 114.145C48.7393 114.116 48.7359 114.083 48.7424 114.052C48.7463 114.036 48.7532 114.021 48.7626 114.008C48.7721 113.996 48.7838 113.985 48.7971 113.978C48.8104 113.97 48.8249 113.966 48.8398 113.965C48.8546 113.965 48.8695 113.967 48.8833 113.974L49.6051 114.229C49.6195 114.233 49.6328 114.241 49.6443 114.252C49.6558 114.262 49.6652 114.275 49.6718 114.29C49.6785 114.305 49.6822 114.321 49.6829 114.338C49.6835 114.354 49.681 114.371 49.6755 114.386C49.6715 114.401 49.6649 114.415 49.6561 114.427C49.6473 114.439 49.6364 114.449 49.6241 114.456C49.6119 114.463 49.5984 114.468 49.5846 114.469C49.5708 114.471 49.5568 114.469 49.5435 114.465Z" fill="white"/>
<path d="M51.8505 114.141C51.8294 114.139 51.8091 114.13 51.792 114.116C51.7748 114.103 51.7615 114.084 51.7534 114.062L51.5946 113.679C51.5824 113.649 51.581 113.615 51.5909 113.583C51.6008 113.552 51.6211 113.527 51.6476 113.512C51.6746 113.498 51.7053 113.497 51.7332 113.508C51.7612 113.519 51.7842 113.541 51.7975 113.571L51.9563 113.964C51.9635 113.978 51.9676 113.994 51.9683 114.011C51.969 114.028 51.9663 114.044 51.9603 114.059C51.9543 114.074 51.9453 114.088 51.9339 114.099C51.9225 114.109 51.909 114.117 51.8946 114.121L51.8505 114.141Z" fill="white"/>
<path d="M52.9415 114.199C52.9216 114.208 52.8997 114.208 52.8798 114.199C52.8619 114.176 52.852 114.147 52.852 114.116C52.852 114.085 52.8619 114.056 52.8798 114.032L53.1351 113.581C53.1564 113.558 53.1848 113.545 53.2144 113.545C53.2439 113.545 53.2723 113.558 53.2936 113.581C53.3115 113.604 53.3214 113.633 53.3214 113.664C53.3214 113.695 53.3115 113.724 53.2936 113.748L53.0383 114.199C53.023 114.207 53.0065 114.211 52.9899 114.211C52.9732 114.211 52.9568 114.207 52.9415 114.199Z" fill="white"/>
<path d="M55.1951 113.944H54.3764C54.3476 113.942 54.3207 113.927 54.3011 113.903C54.2815 113.88 54.2707 113.849 54.2708 113.816C54.2708 113.801 54.2735 113.785 54.2788 113.771C54.2841 113.757 54.2919 113.744 54.3017 113.733C54.3115 113.722 54.3231 113.713 54.336 113.707C54.3488 113.701 54.3625 113.698 54.3764 113.698H55.1951C55.2231 113.698 55.25 113.711 55.2698 113.733C55.2896 113.755 55.3007 113.785 55.3007 113.816C55.3019 113.833 55.3001 113.849 55.2953 113.864C55.2906 113.88 55.283 113.894 55.2731 113.906C55.2631 113.918 55.2511 113.928 55.2376 113.934C55.2242 113.941 55.2097 113.944 55.1951 113.944Z" fill="white"/>
<path d="M55.8729 112.854C55.8537 112.853 55.835 112.847 55.8182 112.837C55.8014 112.827 55.787 112.812 55.776 112.795C55.7581 112.771 55.7482 112.742 55.7482 112.711C55.7482 112.68 55.7581 112.651 55.776 112.628L56.3394 112.254C56.3653 112.24 56.3951 112.237 56.4229 112.246C56.4507 112.255 56.4743 112.276 56.4891 112.303C56.4989 112.314 56.5067 112.327 56.5121 112.342C56.5174 112.356 56.5201 112.371 56.5201 112.387C56.5201 112.402 56.5174 112.418 56.5121 112.432C56.5067 112.446 56.4989 112.459 56.4891 112.47L55.9257 112.844L55.8729 112.854Z" fill="white"/>
<path d="M57.5102 111.92C57.4977 111.926 57.4842 111.93 57.4706 111.93C57.4569 111.93 57.4434 111.926 57.431 111.92C57.4105 111.896 57.3991 111.865 57.3991 111.832C57.3991 111.799 57.4105 111.767 57.431 111.743L57.9856 111.232C58.0092 111.218 58.0366 111.213 58.063 111.219C58.0894 111.225 58.1131 111.241 58.13 111.265C58.1468 111.288 58.1557 111.317 58.155 111.348C58.1544 111.378 58.1442 111.406 58.1264 111.429L57.5718 111.93C57.5509 111.934 57.5292 111.931 57.5102 111.92Z" fill="white"/>
<path d="M46.5681 111.665C46.5429 111.665 46.5184 111.655 46.499 111.637C46.4797 111.619 46.4667 111.594 46.4625 111.567C46.46 111.551 46.4603 111.535 46.4634 111.52C46.4665 111.504 46.4723 111.49 46.4805 111.477C46.4887 111.464 46.4991 111.453 46.5112 111.445C46.5232 111.437 46.5366 111.431 46.5505 111.429L47.0699 111.331C47.0844 111.326 47.0996 111.326 47.1144 111.328C47.1292 111.331 47.1433 111.337 47.1558 111.346C47.1683 111.356 47.1789 111.368 47.1869 111.382C47.1948 111.396 47.2 111.412 47.202 111.429C47.2045 111.444 47.2042 111.46 47.2011 111.476C47.198 111.491 47.1922 111.506 47.184 111.518C47.1758 111.531 47.1653 111.542 47.1533 111.55C47.1413 111.559 47.1279 111.564 47.1139 111.567L46.5857 111.665H46.5681Z" fill="white"/>
<path d="M45.2125 113.394C45.1899 113.394 45.1678 113.386 45.149 113.372C45.1302 113.358 45.1155 113.339 45.1068 113.315L44.7987 112.402C44.7964 112.373 44.8029 112.344 44.817 112.32C44.8311 112.296 44.8521 112.278 44.8765 112.269C44.901 112.26 44.9274 112.26 44.9517 112.27C44.9759 112.28 44.9964 112.299 45.01 112.323L45.3093 113.227C45.3149 113.242 45.3178 113.258 45.3177 113.274C45.3177 113.29 45.3147 113.306 45.3089 113.32C45.3031 113.335 45.2947 113.348 45.2842 113.359C45.2737 113.37 45.2612 113.379 45.2477 113.384L45.2125 113.394Z" fill="white"/>
<path d="M21.9197 134.438L37.1313 122.894C37.1313 122.894 38.0116 114.651 38.6014 113.728C39.7669 112.449 41.0176 111.27 42.3426 110.201C42.3426 110.201 47.8797 112.048 49.1738 112.912C50.4678 113.777 49.0593 116.214 48.5752 120.271C48.2829 122.131 47.4441 123.828 46.1912 125.097C44.9383 126.365 43.3426 127.132 41.656 127.276C41.656 127.276 32.4833 145.776 27.6504 149.332C22.8176 152.889 12.7293 144.518 21.9197 134.438Z" fill="#E4897B"/>
<path opacity="0.2" d="M94.4828 127.325C92.8543 127.531 91.0937 127.689 89.4475 127.708C88.2419 123.413 86.4611 119.345 84.1657 115.644C84.1657 115.644 93.4793 120.831 94.4828 127.325Z" fill="black"/>
<path opacity="0.2" d="M39.0063 148.291C39.0063 148.143 39.0063 147.986 39.0063 147.839C38.9535 145.471 38.9007 142.926 38.8567 140.333C39.737 136.609 40.6173 133.033 41.5592 129.683C41.6296 130.086 43.9272 142.15 39.0063 148.291Z" fill="black"/>
<path d="M79.4209 126.991C80.9262 132.404 78.7519 137.975 74.5617 139.419C70.3714 140.863 65.7587 137.651 64.2621 132.237C62.7656 126.824 64.9312 121.254 69.1214 119.809C73.3116 118.365 77.9156 121.578 79.4209 126.991Z" fill="#FE724C"/>
<path opacity="0.2" d="M76.8768 127.875C77.7571 131.157 76.4719 134.517 73.9366 135.391C71.4013 136.265 68.6108 134.32 67.7041 131.049C66.7974 127.777 68.109 124.397 70.6443 123.523C73.1796 122.649 75.9701 124.594 76.8768 127.875Z" fill="black"/>
<path d="M60.961 120.173C60.7439 120.843 60.5933 121.539 60.5121 122.246C60.4446 122.727 60.4034 123.213 60.3888 123.7C60.3184 125.832 61.5596 133.23 61.5596 133.23L62.6776 133.171C63.1933 135.869 63.5724 138.598 63.8132 141.345C63.8165 141.407 63.8308 141.467 63.8552 141.523C63.8796 141.579 63.9137 141.629 63.9554 141.67C63.9971 141.711 64.0457 141.742 64.0983 141.762C64.1509 141.783 64.2066 141.791 64.2621 141.787C64.318 141.786 64.3731 141.772 64.4241 141.746C64.475 141.721 64.5208 141.684 64.5587 141.638C64.5965 141.592 64.6256 141.538 64.6443 141.479C64.6629 141.42 64.6707 141.358 64.6671 141.296C64.3766 138.594 62.9505 126.166 60.961 120.173Z" fill="#FE724C"/>
<path d="M80.9703 124.073C81.195 124.024 81.394 123.88 81.5248 123.67C81.6023 123.544 81.6522 123.399 81.6706 123.247C81.6889 123.095 81.6752 122.941 81.6305 122.796C81.3136 121.715 79.6498 118.473 79.5002 118.591C79.3505 118.709 80.6886 121.99 81.0055 123.032C81.0309 123.101 81.0309 123.179 81.0055 123.248C80.9865 123.281 80.9604 123.308 80.9297 123.327C80.899 123.346 80.8645 123.356 80.8294 123.356H80.7678C80.0019 120.919 78.6199 118.522 78.4702 118.65C78.3206 118.778 79.3505 121.057 80.0723 123.385C79.909 123.394 79.7479 123.341 79.6141 123.236C79.4803 123.131 79.3814 122.98 79.3329 122.806C78.7607 120.841 77.5283 118.807 77.3698 118.876C77.2114 118.945 78.1533 121.116 78.6991 123.002C78.7924 123.335 78.9824 123.624 79.2389 123.823C79.4955 124.022 79.8042 124.121 80.1164 124.103H80.3012C81.889 129.213 82.8658 134.535 83.2062 139.93C83.213 140.026 83.2524 140.115 83.3163 140.179C83.3802 140.243 83.4637 140.277 83.5495 140.274C83.5931 140.271 83.6358 140.259 83.6751 140.238C83.7144 140.217 83.7494 140.187 83.7782 140.15C83.8069 140.114 83.8287 140.071 83.8424 140.025C83.856 139.978 83.8612 139.929 83.8576 139.881C83.4965 134.497 82.5263 129.185 80.9703 124.073Z" fill="#FE724C"/>
<path d="M182.821 315.495H188.869L189.863 151.494H181.835L182.821 315.495Z" fill="#FE724C"/>
<path opacity="0.4" d="M181.826 151.769L181.985 179.022L182.821 315.495H188.869L189.705 179.022L189.855 151.769H181.826Z" fill="white"/>
<path opacity="0.2" d="M181.826 151.769L181.985 179.327H189.705L189.855 151.769H181.826Z" fill="black"/>
<path d="M118.585 315.495H124.633L135.505 151.494H127.476L118.585 315.495Z" fill="#FE724C"/>
<path opacity="0.5" d="M118.585 315.495H124.633L134.977 159.884L135.514 151.769H127.476L127.045 159.884L118.585 315.495Z" fill="white"/>
<path opacity="0.2" d="M127.045 159.481H134.977L135.514 151.769H127.476L127.045 159.481Z" fill="black"/>
<path d="M247.056 315.495H253.113L244.213 151.494H236.185L247.056 315.495Z" fill="#FE724C"/>
<path opacity="0.5" d="M236.193 151.769L236.722 159.884L247.065 315.495H253.113L244.653 159.884L244.222 151.769H236.193Z" fill="white"/>
<path opacity="0.2" d="M244.222 151.769H236.193L236.722 159.481H244.653L244.222 151.769Z" fill="black"/>
<path d="M248.676 155.728H123.022C122.518 155.728 122.034 155.504 121.678 155.106C121.321 154.708 121.121 154.169 121.121 153.606V147.269L250.586 147.269V153.606C250.586 153.885 250.537 154.162 250.441 154.42C250.345 154.678 250.204 154.913 250.026 155.11C249.849 155.307 249.638 155.463 249.407 155.569C249.175 155.675 248.927 155.729 248.676 155.728Z" fill="#FE724C"/>
<path opacity="0.6" d="M248.676 155.728H123.022C122.518 155.728 122.034 155.504 121.678 155.106C121.321 154.708 121.121 154.169 121.121 153.606V147.269L250.586 147.269V153.606C250.586 153.885 250.537 154.162 250.441 154.42C250.345 154.678 250.204 154.913 250.026 155.11C249.849 155.307 249.638 155.463 249.407 155.569C249.175 155.675 248.927 155.729 248.676 155.728Z" fill="white"/>
<path opacity="0.2" d="M121.121 151.494L250.586 151.494V147.259L121.121 147.259V151.494Z" fill="black"/>
<path d="M117.362 148.369H254.319C254.886 148.369 255.43 148.118 255.831 147.67C256.233 147.222 256.458 146.615 256.458 145.982C256.458 145.349 256.233 144.742 255.831 144.294C255.43 143.846 254.886 143.595 254.319 143.595H117.362C117.081 143.596 116.803 143.659 116.544 143.78C116.285 143.901 116.05 144.078 115.852 144.301C115.654 144.523 115.497 144.787 115.391 145.077C115.284 145.368 115.23 145.678 115.231 145.992C115.234 146.622 115.459 147.225 115.858 147.67C116.257 148.115 116.798 148.367 117.362 148.369Z" fill="#FE724C"/>
<path opacity="0.6" d="M117.362 148.369H254.319C254.886 148.369 255.43 148.118 255.831 147.67C256.233 147.222 256.458 146.615 256.458 145.982C256.458 145.349 256.233 144.742 255.831 144.294C255.43 143.846 254.886 143.595 254.319 143.595H117.362C117.081 143.596 116.803 143.659 116.544 143.78C116.285 143.901 116.05 144.078 115.852 144.301C115.654 144.523 115.497 144.787 115.391 145.077C115.284 145.368 115.23 145.678 115.231 145.992C115.234 146.622 115.459 147.225 115.858 147.67C116.257 148.115 116.798 148.367 117.362 148.369Z" fill="white"/>
<path d="M247.769 143.595L227.056 189.898L194.432 143.595H177.046L149.053 189.898L126.174 143.595H247.769Z" fill="#FE724C"/>
<path d="M178.886 133.898H171.676C170.266 133.898 169.123 135.173 169.123 136.747V136.757C169.123 138.33 170.266 139.606 171.676 139.606H178.886C180.296 139.606 181.439 138.33 181.439 136.757V136.747C181.439 135.173 180.296 133.898 178.886 133.898Z" fill="#FE724C"/>
<path d="M193.464 133.898H186.254C184.844 133.898 183.701 135.173 183.701 136.747V136.757C183.701 138.33 184.844 139.606 186.254 139.606H193.464C194.874 139.606 196.017 138.33 196.017 136.757V136.747C196.017 135.173 194.874 133.898 193.464 133.898Z" fill="#FE724C"/>
<path d="M238.773 135.617H164.502V143.604H238.773V135.617Z" fill="#263238"/>
<path opacity="0.1" d="M238.773 135.617H164.502V143.604H238.773V135.617Z" fill="white"/>
<path opacity="0.2" d="M198.376 135.617H164.502V143.604H198.376V135.617Z" fill="white"/>
<path d="M256.159 100.18H215.762L198.376 135.617H238.773L256.159 100.18Z" fill="#263238"/>
<path d="M212.769 113.571C212.769 111.331 213.772 108.511 217.39 107.676C221.008 106.841 221.501 104.964 223.13 103.501C224.758 102.037 226.81 101.27 228.966 102.439C231.123 103.609 232.364 105.151 236.009 103.314C239.653 101.477 243.359 101.172 245.076 102.921C246.792 104.67 245.657 106.851 246.616 108.265C247.576 109.68 248.535 109.69 248.447 112.087C248.359 114.484 243.245 118.689 243.359 120.762C243.474 122.835 243.042 126.431 237.47 127.895C231.898 129.359 231.959 132.169 228.975 132.945C225.991 133.721 224.38 130.901 221.264 131.677C218.147 132.454 217.144 133.642 214.221 133.082C211.299 132.522 211.756 129.86 209.925 129.27C208.094 128.681 206.536 123.975 208.165 121.853C209.793 119.731 212.804 117.058 212.769 113.571Z" fill="#FE724C"/>
<g opacity="0.4">
<path d="M232.311 107.676C225.516 107.676 217.628 112.51 214.705 118.483C211.783 124.456 214.925 129.29 221.748 129.29C228.57 129.29 236.414 124.456 239.354 118.483C242.294 112.51 239.134 107.676 232.311 107.676ZM221.933 118.483C223.139 116.017 226.387 114.032 229.195 114.032C232.003 114.032 233.289 115.997 232.083 118.483C230.877 120.969 227.628 122.934 224.829 122.934C222.03 122.934 220.753 120.88 221.959 118.424L221.933 118.483Z" fill="black"/>
</g>
<g opacity="0.4">
<path d="M238.711 117.039V116.98C238.333 116.233 238.711 115.182 239.363 114.249C240.586 112.578 239.01 112.166 238.333 111.252C237.655 110.338 237.989 109.11 236.017 109.287C235.454 109.401 234.879 109.424 234.31 109.356C233.896 109.218 233.905 108.855 233.649 108.609C232.989 107.981 230.031 108.069 228.773 108.835C227.98 109.317 227.487 110.142 226.563 110.456C225.172 110.928 223.667 110.338 222.285 111.183C220.903 112.028 220.92 113.364 219.644 114.131C218.051 115.182 216.308 115.732 216.184 117.412C216.196 118.09 216.069 118.762 215.815 119.377C215.216 120.615 213.623 122.423 214.521 123.307C215.004 123.63 215.514 123.9 216.043 124.112C216.977 124.682 215.762 126.254 216.616 126.922C217.337 127.482 218.64 126.922 219.661 127.011C220.982 127.148 220.894 128.917 222.901 128.131C224.424 127.531 225.648 127.07 226.933 127.472C227.408 127.52 227.887 127.446 228.332 127.255C228.778 127.064 229.178 126.762 229.503 126.372C230.579 125.224 231.9 124.402 233.341 123.985C233.816 123.939 234.261 123.71 234.6 123.336C234.902 122.972 235.173 122.577 235.41 122.157C235.905 121.182 236.602 120.353 237.444 119.741C238.236 119.19 239.204 118.483 239.107 117.776C239.02 117.503 238.886 117.253 238.711 117.039ZM224.855 122.875C222.047 122.875 220.753 120.91 221.959 118.424C223.165 115.938 226.413 113.974 229.222 113.974C232.03 113.974 233.315 115.938 232.109 118.424C230.903 120.91 227.655 122.875 224.855 122.875Z" fill="white"/>
</g>
<path d="M218.024 123.071C217.963 123.071 217.91 123.071 217.892 123.002L217.505 122.118C217.505 122.039 217.549 121.912 217.672 121.853C217.795 121.794 217.936 121.794 217.971 121.853L218.35 122.727C218.35 122.816 218.35 122.934 218.183 123.002C218.136 123.04 218.081 123.063 218.024 123.071Z" fill="#FE724C"/>
<path d="M219.477 123.494C219.397 123.494 219.345 123.494 219.336 123.395C219.327 123.297 219.415 123.179 219.547 123.13L220.586 122.708C220.718 122.658 220.841 122.708 220.85 122.786C220.859 122.865 220.771 122.992 220.639 123.051L219.6 123.464L219.477 123.494Z" fill="#FE724C"/>
<path d="M219.591 125.498H219.512L218.455 124.987C218.359 124.938 218.367 124.83 218.455 124.731C218.499 124.685 218.553 124.652 218.611 124.635C218.67 124.617 218.731 124.617 218.79 124.633L219.855 125.144C219.943 125.144 219.934 125.301 219.855 125.399C219.78 125.465 219.686 125.499 219.591 125.498Z" fill="#FE724C"/>
<path d="M221.598 125.242C221.528 125.242 221.466 125.242 221.457 125.154L221.255 124.083C221.255 123.995 221.334 123.877 221.466 123.818C221.598 123.759 221.713 123.818 221.73 123.887L221.933 124.957C221.933 125.046 221.853 125.164 221.73 125.223C221.688 125.238 221.643 125.245 221.598 125.242Z" fill="#FE724C"/>
<path d="M219.301 121.303H219.239C219.133 121.303 219.124 121.165 219.239 121.057L219.917 120.271C219.96 120.222 220.013 120.185 220.071 120.163C220.129 120.141 220.19 120.134 220.251 120.143C220.357 120.143 220.366 120.291 220.251 120.389L219.573 121.175C219.501 121.256 219.403 121.302 219.301 121.303Z" fill="#FE724C"/>
<path d="M218.614 120.212H218.57L217.496 119.986C217.39 119.986 217.364 119.858 217.443 119.75C217.485 119.698 217.536 119.657 217.595 119.632C217.653 119.606 217.715 119.596 217.778 119.603L218.852 119.839C218.957 119.839 218.984 119.957 218.904 120.065C218.868 120.11 218.823 120.146 218.773 120.172C218.723 120.197 218.669 120.211 218.614 120.212Z" fill="#FE724C"/>
<path d="M219.107 118.404C219.01 118.404 218.948 118.345 218.957 118.267C218.977 118.203 219.012 118.147 219.059 118.103C219.105 118.06 219.162 118.032 219.221 118.021L220.868 117.638C220.991 117.638 221.088 117.638 221.07 117.766C221.052 117.894 220.938 117.982 220.806 118.011L219.169 118.395L219.107 118.404Z" fill="#FE724C"/>
<path d="M220.507 116.95C220.419 116.95 220.357 116.901 220.357 116.823V116.164C220.374 116.101 220.408 116.044 220.453 116.001C220.498 115.957 220.553 115.929 220.612 115.919C220.744 115.919 220.841 115.919 220.841 116.027V116.685C220.825 116.749 220.793 116.806 220.75 116.851C220.706 116.896 220.653 116.927 220.595 116.941L220.507 116.95Z" fill="#FE724C"/>
<path d="M222.346 115.673C222.31 115.689 222.269 115.689 222.232 115.673C222.17 115.614 222.232 115.487 222.329 115.408L223.271 114.72C223.394 114.632 223.535 114.612 223.596 114.72C223.658 114.828 223.596 114.907 223.508 114.995L222.558 115.683C222.488 115.702 222.415 115.698 222.346 115.673Z" fill="#FE724C"/>
<path d="M224.609 113.944H224.565L223.28 113.689C223.174 113.689 223.148 113.561 223.218 113.463C223.259 113.409 223.31 113.367 223.369 113.34C223.427 113.313 223.49 113.301 223.552 113.305L224.838 113.561C224.943 113.561 224.97 113.689 224.899 113.797C224.823 113.886 224.719 113.939 224.609 113.944Z" fill="#FE724C"/>
<path d="M226.361 113.237H226.281C226.193 113.237 226.193 113.079 226.281 112.981L227.452 111.792C227.496 111.745 227.549 111.711 227.607 111.692C227.666 111.673 227.727 111.67 227.787 111.684C227.883 111.684 227.875 111.842 227.787 111.94L226.625 113.138C226.549 113.203 226.456 113.237 226.361 113.237Z" fill="#FE724C"/>
<path d="M230.366 112.519C230.329 112.535 230.288 112.535 230.252 112.519L229.248 111.419C229.186 111.35 229.248 111.232 229.354 111.154C229.459 111.075 229.618 111.056 229.671 111.154L230.674 112.244C230.736 112.313 230.674 112.431 230.577 112.519C230.508 112.541 230.435 112.541 230.366 112.519Z" fill="#FE724C"/>
<path d="M234.407 112.038H232.461C232.338 112.038 232.285 111.95 232.338 111.842C232.373 111.784 232.421 111.737 232.476 111.705C232.531 111.672 232.592 111.655 232.655 111.655H234.6C234.715 111.655 234.776 111.734 234.723 111.842C234.689 111.901 234.642 111.95 234.587 111.984C234.532 112.018 234.47 112.037 234.407 112.038Z" fill="#FE724C"/>
<path d="M233.385 114.416C233.28 114.416 233.218 114.347 233.253 114.249L233.535 113.374C233.562 113.313 233.604 113.261 233.655 113.223C233.706 113.185 233.764 113.163 233.826 113.158C233.949 113.158 234.028 113.217 233.993 113.315L233.711 114.19C233.682 114.25 233.641 114.303 233.59 114.342C233.54 114.381 233.482 114.406 233.421 114.416H233.385Z" fill="#FE724C"/>
<path d="M236.149 114.985C236.115 114.997 236.078 114.997 236.044 114.985L235.032 114.16C234.952 114.101 235.032 113.983 235.102 113.895C235.146 113.852 235.199 113.823 235.257 113.813C235.315 113.802 235.374 113.81 235.428 113.836L236.449 114.661C236.519 114.72 236.449 114.848 236.378 114.936C236.307 114.974 236.228 114.991 236.149 114.985Z" fill="#FE724C"/>
<path d="M234.38 116.292C234.351 116.295 234.322 116.289 234.297 116.273C234.272 116.257 234.252 116.233 234.239 116.204C234.239 116.115 234.301 115.997 234.424 115.938L235.718 115.329C235.841 115.261 235.973 115.329 236 115.329C236.026 115.329 235.947 115.536 235.815 115.604L234.53 116.214C234.484 116.248 234.433 116.275 234.38 116.292Z" fill="#FE724C"/>
<path d="M235.049 118.778C234.979 118.778 234.917 118.778 234.908 118.699L234.583 117.53C234.583 117.442 234.644 117.314 234.767 117.255C234.891 117.196 235.023 117.255 235.049 117.314L235.375 118.483C235.375 118.571 235.313 118.689 235.181 118.748L235.049 118.778Z" fill="#FE724C"/>
<path d="M232.866 119.976C232.829 119.993 232.788 119.993 232.751 119.976C232.681 119.917 232.751 119.8 232.831 119.711L233.94 118.866C233.99 118.831 234.048 118.813 234.107 118.813C234.166 118.813 234.224 118.831 234.274 118.866C234.336 118.925 234.274 119.053 234.186 119.131L233.077 119.976C233.008 119.996 232.935 119.996 232.866 119.976Z" fill="#FE724C"/>
<path d="M232.62 121.529L231.281 121.303C231.258 121.302 231.236 121.294 231.217 121.278C231.198 121.263 231.184 121.242 231.176 121.217C231.168 121.192 231.168 121.166 231.174 121.141C231.18 121.116 231.193 121.093 231.211 121.077C231.252 121.023 231.304 120.981 231.362 120.954C231.42 120.927 231.483 120.915 231.546 120.919L232.884 121.145C232.998 121.145 233.024 121.263 232.954 121.371C232.913 121.425 232.862 121.467 232.803 121.494C232.745 121.521 232.682 121.533 232.62 121.529Z" fill="#FE724C"/>
<path d="M229.362 124.024H229.301C229.204 124.024 229.186 123.886 229.301 123.788L230.454 122.393C230.497 122.344 230.549 122.306 230.607 122.284C230.666 122.262 230.728 122.256 230.788 122.265C230.894 122.265 230.903 122.403 230.788 122.501L229.67 123.887C229.631 123.933 229.583 123.969 229.53 123.993C229.477 124.017 229.42 124.027 229.362 124.024Z" fill="#FE724C"/>
<path d="M226.229 124.024C226.123 124.024 226.061 123.955 226.096 123.857C226.127 123.799 226.169 123.749 226.219 123.711C226.27 123.674 226.327 123.65 226.387 123.641L228.306 123.415C228.42 123.415 228.509 123.474 228.473 123.572C228.444 123.634 228.401 123.687 228.349 123.726C228.297 123.766 228.237 123.79 228.174 123.798L226.264 124.024H226.229Z" fill="#FE724C"/>
<path d="M224.389 126.087H224.309C224.221 126.087 224.23 125.93 224.309 125.832L225.19 124.997C225.234 124.95 225.287 124.917 225.346 124.9C225.404 124.883 225.466 124.882 225.524 124.898C225.621 124.898 225.612 125.056 225.524 125.154L224.644 125.989C224.573 126.056 224.482 126.092 224.389 126.087Z" fill="#FE724C"/>
<path d="M222.628 125.665H222.549C222.461 125.665 222.461 125.508 222.549 125.409L223.429 124.427C223.474 124.379 223.529 124.344 223.589 124.325C223.649 124.306 223.712 124.304 223.772 124.319C223.861 124.319 223.861 124.476 223.772 124.574L222.892 125.557C222.819 125.628 222.725 125.667 222.628 125.665Z" fill="#FE724C"/>
<path d="M227.549 125.242C227.435 125.242 227.382 125.174 227.417 125.075C227.448 125.015 227.491 124.964 227.543 124.927C227.595 124.889 227.654 124.866 227.716 124.859L228.447 124.8C228.57 124.8 228.641 124.869 228.597 124.977C228.566 125.037 228.523 125.088 228.47 125.126C228.418 125.163 228.359 125.187 228.297 125.193H227.567L227.549 125.242Z" fill="#FE724C"/>
<path d="M231.862 123.071C231.783 123.071 231.722 123.071 231.722 122.953C231.722 122.835 231.827 122.747 231.959 122.698L232.963 122.383C233.095 122.383 233.2 122.383 233.2 122.482C233.2 122.58 233.095 122.698 232.963 122.737L231.959 123.061L231.862 123.071Z" fill="#FE724C"/>
<path d="M234.75 120.517H234.688C234.591 120.517 234.574 120.379 234.688 120.271L235.34 119.485C235.383 119.436 235.435 119.399 235.493 119.377C235.551 119.355 235.613 119.348 235.674 119.357C235.78 119.357 235.797 119.495 235.674 119.593L235.031 120.379C234.957 120.465 234.856 120.514 234.75 120.517Z" fill="#FE724C"/>
<path d="M236.625 116.95C236.537 116.95 236.484 116.901 236.484 116.832V115.988C236.484 115.889 236.598 115.781 236.73 115.742C236.862 115.703 236.968 115.742 236.959 115.84V116.685C236.959 116.783 236.845 116.891 236.713 116.931L236.625 116.95Z" fill="#FE724C"/>
<path d="M236.378 113.237C236.264 113.237 236.202 113.158 236.238 113.06L236.458 112.461C236.489 112.402 236.532 112.352 236.585 112.316C236.637 112.28 236.696 112.259 236.757 112.254C236.88 112.254 236.959 112.313 236.915 112.421L236.695 113.021C236.665 113.081 236.622 113.133 236.57 113.17C236.518 113.208 236.458 113.231 236.396 113.237H236.378Z" fill="#FE724C"/>
<path d="M232.311 110.761C232.283 110.772 232.252 110.772 232.223 110.761L231.73 110.456C231.651 110.407 231.669 110.289 231.774 110.191C231.82 110.147 231.874 110.117 231.932 110.103C231.991 110.09 232.052 110.093 232.109 110.112L232.593 110.417C232.681 110.476 232.663 110.594 232.593 110.682C232.512 110.748 232.411 110.776 232.311 110.761Z" fill="#FE724C"/>
<path d="M232.426 113.237H231.642C231.519 113.237 231.466 113.148 231.519 113.04C231.554 112.981 231.6 112.932 231.656 112.898C231.711 112.864 231.773 112.845 231.836 112.844H232.619C232.743 112.844 232.796 112.932 232.743 113.04C232.708 113.099 232.661 113.148 232.606 113.182C232.551 113.217 232.489 113.235 232.426 113.237Z" fill="#FE724C"/>
<path d="M227.839 113.237C227.76 113.237 227.707 113.237 227.699 113.129C227.69 113.021 227.787 112.922 227.919 112.873L228.702 112.569C228.834 112.569 228.949 112.569 228.957 112.647C228.966 112.726 228.878 112.863 228.746 112.912L227.954 113.207C227.918 113.226 227.879 113.236 227.839 113.237Z" fill="#FE724C"/>
<path d="M225.269 112.038C225.155 112.038 225.093 111.959 225.137 111.861C225.167 111.801 225.21 111.751 225.263 111.715C225.315 111.679 225.375 111.658 225.436 111.655L226.317 111.586C226.44 111.586 226.51 111.655 226.466 111.763C226.435 111.822 226.391 111.871 226.339 111.907C226.287 111.943 226.228 111.965 226.167 111.969L225.287 112.038H225.269Z" fill="#FE724C"/>
<path d="M218.059 117.609C218.036 117.61 218.013 117.606 217.991 117.595C217.97 117.585 217.951 117.57 217.936 117.55C217.883 117.481 217.936 117.353 218.068 117.284L218.948 116.724C219.072 116.646 219.213 116.646 219.257 116.724C219.301 116.803 219.257 116.921 219.124 116.99L218.244 117.55C218.188 117.587 218.125 117.608 218.059 117.609Z" fill="#FE724C"/>
<path d="M221.748 114.553C221.66 114.553 221.598 114.504 221.607 114.425L221.651 113.797C221.651 113.698 221.774 113.59 221.906 113.551C222.038 113.512 222.144 113.551 222.135 113.669L222.082 114.298C222.082 114.396 221.959 114.504 221.827 114.543L221.748 114.553Z" fill="#FE724C"/>
<path d="M220.172 122.413C220.084 122.413 220.022 122.413 220.022 122.295V121.941C220.022 121.843 220.128 121.725 220.26 121.686C220.392 121.647 220.498 121.686 220.498 121.784V122.148C220.498 122.246 220.383 122.354 220.251 122.393L220.172 122.413Z" fill="#FE724C"/>
<path d="M222.373 126.549L221.536 126.451C221.422 126.451 221.387 126.343 221.448 126.235C221.488 126.178 221.539 126.133 221.597 126.104C221.655 126.075 221.719 126.062 221.783 126.068L222.61 126.166C222.725 126.166 222.769 126.284 222.698 126.392C222.657 126.442 222.607 126.482 222.551 126.509C222.495 126.537 222.434 126.55 222.373 126.549Z" fill="#FE724C"/>
<path d="M215.762 100.18L212.769 95.0023L195.823 130.498L198.376 135.617L215.762 100.18Z" fill="#263238"/>
<path d="M212.769 95.0023L253.632 95.6507L256.159 100.18H215.762L212.769 95.0023Z" fill="#263238"/>
<path opacity="0.2" d="M212.769 95.0023L253.632 95.6507L256.159 100.18H215.762L212.769 95.0023Z" fill="white"/>
<path opacity="0.1" d="M215.762 100.18L212.769 95.0023L195.823 130.498L198.376 135.617L215.762 100.18Z" fill="white"/>
<path d="M151.042 138.987C151.047 139.049 151.047 139.111 151.042 139.174C151.008 139.804 150.767 140.399 150.364 140.844C149.922 141.334 149.324 141.609 148.7 141.61H139.369C138.89 141.611 138.422 141.447 138.028 141.142C137.634 140.836 137.334 140.403 137.169 139.901C137.073 139.607 137.023 139.299 137.019 138.987C137.018 138.642 137.078 138.3 137.195 137.981C137.313 137.663 137.486 137.373 137.705 137.129C137.923 136.885 138.183 136.692 138.468 136.561C138.754 136.429 139.06 136.362 139.369 136.364H148.683C149.307 136.364 149.906 136.64 150.348 137.131C150.79 137.623 151.04 138.29 151.042 138.987Z" fill="#FE724C"/>
<path d="M151.042 138.987C151.047 139.049 151.047 139.111 151.042 139.174C150.805 139.04 150.534 139.002 150.275 139.065C150.015 139.127 149.783 139.287 149.616 139.517C149.088 140.205 148.789 139.517 148.005 138.987C147.222 138.456 146.517 138.889 145.822 139.802C145.126 140.716 144.695 139.861 144.061 138.987C143.427 138.112 142.142 138.987 141.491 139.802C140.839 140.618 140.408 139.517 139.88 138.987C139.352 138.456 138.744 138.987 137.873 139.802C137.784 139.897 137.67 139.957 137.548 139.974C137.426 139.992 137.303 139.966 137.195 139.901C137.1 139.607 137.049 139.299 137.045 138.987C137.044 138.642 137.104 138.3 137.222 137.981C137.34 137.663 137.513 137.373 137.731 137.129C137.95 136.885 138.209 136.692 138.495 136.561C138.781 136.429 139.087 136.362 139.396 136.364H148.683C149.307 136.364 149.906 136.64 150.348 137.131C150.79 137.623 151.04 138.29 151.042 138.987Z" fill="#263238"/>
<path d="M152.186 143.595H138.005L133.603 141.168H156.588L152.186 143.595Z" fill="#FE724C"/>
<path opacity="0.6" d="M152.186 143.595H138.005L133.603 141.168H156.588L152.186 143.595Z" fill="white"/>
<path d="M159.59 141.905H131.297C131.123 141.902 130.958 141.823 130.836 141.686C130.714 141.548 130.646 141.362 130.646 141.168C130.646 140.975 130.714 140.79 130.836 140.654C130.959 140.518 131.124 140.441 131.297 140.441H159.59C159.763 140.441 159.928 140.518 160.05 140.654C160.173 140.79 160.241 140.975 160.241 141.168C160.241 141.362 160.173 141.548 160.051 141.686C159.929 141.823 159.763 141.902 159.59 141.905Z" fill="#FE724C"/>
<path opacity="0.7" d="M159.59 141.905H131.297C131.123 141.902 130.958 141.823 130.836 141.686C130.714 141.548 130.646 141.362 130.646 141.168C130.646 140.975 130.714 140.79 130.836 140.654C130.959 140.518 131.124 140.441 131.297 140.441H159.59C159.763 140.441 159.928 140.518 160.05 140.654C160.173 140.79 160.241 140.975 160.241 141.168C160.241 141.362 160.173 141.548 160.051 141.686C159.929 141.823 159.763 141.902 159.59 141.905Z" fill="white"/>
<path d="M238.711 117.039V116.98C238.333 116.233 238.711 115.182 239.363 114.249C240.586 112.578 239.01 112.166 238.333 111.252C237.655 110.338 237.989 109.11 236.017 109.287C235.454 109.401 234.879 109.424 234.31 109.356C233.896 109.218 233.905 108.855 233.649 108.609C232.989 107.981 230.031 108.069 228.773 108.835C227.98 109.317 227.487 110.142 226.563 110.456C225.172 110.928 223.667 110.338 222.285 111.183C220.903 112.028 220.92 113.364 219.644 114.131C218.051 115.182 216.308 115.732 216.184 117.412C216.196 118.09 216.069 118.762 215.815 119.377C215.216 120.615 213.623 122.423 214.521 123.307C215.004 123.63 215.514 123.9 216.043 124.112C216.977 124.682 215.762 126.254 216.616 126.922C217.337 127.482 218.64 126.922 219.661 127.011C220.982 127.148 220.894 128.917 222.901 128.131C224.424 127.531 225.648 127.07 226.933 127.472C227.408 127.52 227.887 127.446 228.332 127.255C228.778 127.064 229.178 126.762 229.503 126.372C230.579 125.224 231.9 124.402 233.341 123.985C233.816 123.939 234.261 123.71 234.6 123.336C234.902 122.972 235.173 122.577 235.41 122.157C235.905 121.182 236.602 120.353 237.444 119.741C238.236 119.19 239.204 118.483 239.107 117.776C239.02 117.503 238.886 117.253 238.711 117.039ZM224.855 122.875C222.047 122.875 220.753 120.91 221.959 118.424C223.165 115.938 226.413 113.974 229.222 113.974C232.03 113.974 233.315 115.938 232.109 118.424C230.903 120.91 227.655 122.875 224.855 122.875Z" fill="#FE724C"/>
<path d="M-12.1655 292.879C-12.3768 290.197 -17.2536 227.28 -8.12493 220.599C-5.94179 219.008 -3.98753 218.635 -2.33256 219.617C1.98091 222.044 2.5443 232.34 2.57071 232.772L1.52316 232.841C1.52316 232.733 0.977368 222.781 -2.79912 220.658C-4.10196 219.931 -5.70411 220.246 -7.55274 221.641C-16.1621 227.938 -11.1708 292.181 -11.0739 292.83L-12.1655 292.879Z" fill="#FE724C"/>
<path d="M-10.7922 297.958C-10.8539 295.915 -12.3592 247.755 -4.04913 243.54C-3.27974 243.127 -2.43835 242.909 -1.5848 242.9C-0.731246 242.892 0.113498 243.094 0.889354 243.491C6.5937 246.291 10.1149 258.159 10.2645 258.66L9.26982 259.023C9.26982 258.905 5.74861 247.145 0.466807 244.562C-0.172055 244.22 -0.871458 244.043 -1.57989 244.043C-2.28832 244.043 -2.98772 244.22 -3.62658 244.562C-9.99996 247.794 -10.2112 284.145 -9.78868 297.879L-10.7922 297.958Z" fill="#FE724C"/>
<path d="M2.64113 256.941C1.47179 257.053 0.318999 257.324 -0.792046 257.746C-1.08775 256.858 -1.25706 255.923 -1.29382 254.976C-1.5315 246.527 3.88235 250.063 6.75213 247.607C7.40001 246.968 8.16125 246.488 8.98632 246.198C9.81138 245.909 10.6818 245.816 11.541 245.927C11.2941 246.395 11.0764 246.88 10.8895 247.381C10.8224 247.564 10.7926 247.76 10.8021 247.957C10.8116 248.154 10.8603 248.346 10.9446 248.519C11.0289 248.692 11.1467 248.842 11.2895 248.958C11.4322 249.074 11.5963 249.153 11.7698 249.189C12.4892 249.344 13.2339 249.244 13.9002 248.904C14.0895 248.776 14.2718 248.635 14.4459 248.482C14.897 249.369 15.246 250.316 15.4847 251.301C15.7687 252.482 15.9311 253.695 15.9689 254.917C15.5423 255.022 15.1219 255.157 14.71 255.319C14.5499 255.398 14.4076 255.516 14.2936 255.664C14.1795 255.812 14.0967 255.987 14.0511 256.175C14.0055 256.363 13.9983 256.561 14.0301 256.753C14.0618 256.945 14.1318 257.127 14.2347 257.284C14.6853 257.793 15.2128 258.209 15.7928 258.512C15.596 259.855 15.2775 261.172 14.8421 262.442L14.4548 262.501C14.1819 262.56 13.909 262.639 13.6361 262.727C13.4819 262.775 13.3316 262.837 13.1871 262.914C13.0053 263 12.8451 263.135 12.7208 263.306C12.5965 263.477 12.5118 263.68 12.4741 263.896C12.4465 264.126 12.4734 264.359 12.5522 264.573C12.631 264.786 12.7589 264.973 12.923 265.115C13.1001 265.264 13.2886 265.395 13.4864 265.508C12.7671 266.901 11.7358 268.062 10.4934 268.877C9.39637 268.322 8.32938 267.695 7.29792 267.001C7.52679 266.667 7.75567 266.323 7.96694 266.018C8.21201 265.633 8.32451 265.162 8.28385 264.692C8.25705 264.457 8.18881 264.23 8.08305 264.024C7.97729 263.818 7.83611 263.638 7.66764 263.494C7.32903 263.207 6.90297 263.08 6.48138 263.141C6.05979 263.201 5.67645 263.444 5.41407 263.818C5.16759 264.24 4.88589 264.633 4.613 265.036C3.18453 263.863 1.90009 262.485 0.792497 260.939H0.906934C1.60831 260.737 2.32399 260.602 3.04606 260.536C3.45941 260.47 3.83422 260.23 4.09307 259.864C4.35191 259.498 4.47501 259.035 4.43694 258.571C4.39029 258.09 4.17555 257.649 3.83934 257.344C3.50312 257.039 3.07256 256.894 2.64113 256.941Z" fill="#FE724C"/>
<path opacity="0.5" d="M2.64113 256.941C1.47179 257.053 0.318999 257.324 -0.792046 257.746C-1.08775 256.858 -1.25706 255.923 -1.29382 254.976C-1.5315 246.527 3.88235 250.063 6.75213 247.607C7.40001 246.968 8.16125 246.488 8.98632 246.198C9.81138 245.909 10.6818 245.816 11.541 245.927C11.2941 246.395 11.0764 246.88 10.8895 247.381C10.8224 247.564 10.7926 247.76 10.8021 247.957C10.8116 248.154 10.8603 248.346 10.9446 248.519C11.0289 248.692 11.1467 248.842 11.2895 248.958C11.4322 249.074 11.5963 249.153 11.7698 249.189C12.4892 249.344 13.2339 249.244 13.9002 248.904C14.0895 248.776 14.2718 248.635 14.4459 248.482C14.897 249.369 15.246 250.316 15.4847 251.301C15.7687 252.482 15.9311 253.695 15.9689 254.917C15.5423 255.022 15.1219 255.157 14.71 255.319C14.5499 255.398 14.4076 255.516 14.2936 255.664C14.1795 255.812 14.0967 255.987 14.0511 256.175C14.0055 256.363 13.9983 256.561 14.0301 256.753C14.0618 256.945 14.1318 257.127 14.2347 257.284C14.6853 257.793 15.2128 258.209 15.7928 258.512C15.596 259.855 15.2775 261.172 14.8421 262.442L14.4548 262.501C14.1819 262.56 13.909 262.639 13.6361 262.727C13.4819 262.775 13.3316 262.837 13.1871 262.914C13.0053 263 12.8451 263.135 12.7208 263.306C12.5965 263.477 12.5118 263.68 12.4741 263.896C12.4465 264.126 12.4734 264.359 12.5522 264.573C12.631 264.786 12.7589 264.973 12.923 265.115C13.1001 265.264 13.2886 265.395 13.4864 265.508C12.7671 266.901 11.7358 268.062 10.4934 268.877C9.39637 268.322 8.32938 267.695 7.29792 267.001C7.52679 266.667 7.75567 266.323 7.96694 266.018C8.21201 265.633 8.32451 265.162 8.28385 264.692C8.25705 264.457 8.18881 264.23 8.08305 264.024C7.97729 263.818 7.83611 263.638 7.66764 263.494C7.32903 263.207 6.90297 263.08 6.48138 263.141C6.05979 263.201 5.67645 263.444 5.41407 263.818C5.16759 264.24 4.88589 264.633 4.613 265.036C3.18453 263.863 1.90009 262.485 0.792497 260.939H0.906934C1.60831 260.737 2.32399 260.602 3.04606 260.536C3.45941 260.47 3.83422 260.23 4.09307 259.864C4.35191 259.498 4.47501 259.035 4.43694 258.571C4.39029 258.09 4.17555 257.649 3.83934 257.344C3.50312 257.039 3.07256 256.894 2.64113 256.941Z" fill="white"/>
<path d="M4.80661 227.821C5.47279 227.3 6.1943 226.875 6.95455 226.553C6.7601 225.942 6.48088 225.368 6.12706 224.854C2.93157 220.295 1.48788 224.854 -0.994564 224.922C-1.58668 224.903 -2.17571 225.024 -2.72326 225.276C-3.27081 225.529 -3.76459 225.907 -4.17245 226.386C-3.87012 226.51 -3.57596 226.658 -3.29215 226.828C-3.18413 226.892 -3.09049 226.983 -3.01825 227.093C-2.94601 227.203 -2.89704 227.33 -2.87502 227.464C-2.853 227.598 -2.8585 227.736 -2.8911 227.868C-2.9237 227.999 -2.98256 228.121 -3.06327 228.223C-3.37515 228.66 -3.80395 228.973 -4.28688 229.117C-4.43497 229.148 -4.58519 229.165 -4.73584 229.167C-4.62702 229.846 -4.43756 230.507 -4.17245 231.131C-3.85854 231.889 -3.46872 232.604 -3.01045 233.263C-2.74419 233.11 -2.47093 232.972 -2.19177 232.851C-2.07397 232.812 -1.94978 232.803 -1.8286 232.826C-1.70743 232.849 -1.59246 232.902 -1.49237 232.981C-1.39229 233.061 -1.30973 233.165 -1.25093 233.285C-1.19214 233.405 -1.15865 233.539 -1.15302 233.676C-1.18527 234.163 -1.29871 234.64 -1.48753 235.081C-0.857457 235.698 -0.169823 236.239 0.563564 236.692L0.792444 236.545C0.961118 236.44 1.13447 236.345 1.31182 236.26L1.61993 236.132C1.75338 236.089 1.89452 236.084 2.03004 236.118C2.16557 236.153 2.29103 236.225 2.39459 236.329C2.50187 236.432 2.58159 236.567 2.62506 236.717C2.66852 236.868 2.67406 237.029 2.64107 237.183C2.60744 237.348 2.56029 237.509 2.50023 237.665C3.42826 238.047 4.42965 238.152 5.40522 237.969C5.75806 237.141 6.06958 236.292 6.33834 235.425L5.59008 235.209C5.30832 235.126 5.06194 234.934 4.89465 234.668C4.81773 234.532 4.76568 234.381 4.7415 234.222C4.71733 234.064 4.72151 233.901 4.75379 233.745C4.81806 233.428 4.98805 233.15 5.22916 232.969C5.4786 232.796 5.779 232.739 6.06544 232.811C6.35594 232.9 6.66404 232.978 6.94574 233.047C7.23605 231.717 7.36338 230.349 7.32427 228.98H7.24505C6.79859 229.216 6.37149 229.496 5.96861 229.815C5.72242 229.982 5.42729 230.035 5.14664 229.962C4.866 229.889 4.62223 229.696 4.46774 229.424C4.31325 229.153 4.26035 228.824 4.32043 228.51C4.3805 228.195 4.54875 227.92 4.78901 227.742L4.80661 227.821Z" fill="#FE724C"/>
<path opacity="0.3" d="M4.80661 227.821C5.47279 227.3 6.1943 226.875 6.95455 226.553C6.7601 225.942 6.48088 225.368 6.12706 224.854C2.93157 220.295 1.48788 224.854 -0.994564 224.922C-1.58668 224.903 -2.17571 225.024 -2.72326 225.276C-3.27081 225.529 -3.76459 225.907 -4.17245 226.386C-3.87012 226.51 -3.57596 226.658 -3.29215 226.828C-3.18413 226.892 -3.09049 226.983 -3.01825 227.093C-2.94601 227.203 -2.89704 227.33 -2.87502 227.464C-2.853 227.598 -2.8585 227.736 -2.8911 227.868C-2.9237 227.999 -2.98256 228.121 -3.06327 228.223C-3.37515 228.66 -3.80395 228.973 -4.28688 229.117C-4.43497 229.148 -4.58519 229.165 -4.73584 229.167C-4.62702 229.846 -4.43756 230.507 -4.17245 231.131C-3.85854 231.889 -3.46872 232.604 -3.01045 233.263C-2.74419 233.11 -2.47093 232.972 -2.19177 232.851C-2.07397 232.812 -1.94978 232.803 -1.8286 232.826C-1.70743 232.849 -1.59246 232.902 -1.49237 232.981C-1.39229 233.061 -1.30973 233.165 -1.25093 233.285C-1.19214 233.405 -1.15865 233.539 -1.15302 233.676C-1.18527 234.163 -1.29871 234.64 -1.48753 235.081C-0.857457 235.698 -0.169823 236.239 0.563564 236.692L0.792444 236.545C0.961118 236.44 1.13447 236.345 1.31182 236.26L1.61993 236.132C1.75338 236.089 1.89452 236.084 2.03004 236.118C2.16557 236.153 2.29103 236.225 2.39459 236.329C2.50187 236.432 2.58159 236.567 2.62506 236.717C2.66852 236.868 2.67406 237.029 2.64107 237.183C2.60744 237.348 2.56029 237.509 2.50023 237.665C3.42826 238.047 4.42965 238.152 5.40522 237.969C5.75806 237.141 6.06958 236.292 6.33834 235.425L5.59008 235.209C5.30832 235.126 5.06194 234.934 4.89465 234.668C4.81773 234.532 4.76568 234.381 4.7415 234.222C4.71733 234.064 4.72151 233.901 4.75379 233.745C4.81806 233.428 4.98805 233.15 5.22916 232.969C5.4786 232.796 5.779 232.739 6.06544 232.811C6.35594 232.9 6.66404 232.978 6.94574 233.047C7.23605 231.717 7.36338 230.349 7.32427 228.98H7.24505C6.79859 229.216 6.37149 229.496 5.96861 229.815C5.72242 229.982 5.42729 230.035 5.14664 229.962C4.866 229.889 4.62223 229.696 4.46774 229.424C4.31325 229.153 4.26035 228.824 4.32043 228.51C4.3805 228.195 4.54875 227.92 4.78901 227.742L4.80661 227.821Z" fill="white"/>
</g>
</g>
<defs>
<clipPath id="clip0_1_1076">
<rect width="259.2" height="259.2" rx="129.6" fill="white"/>
</clipPath>
<clipPath id="clip1_1_1076">
<rect width="391" height="420" fill="white" transform="translate(-55.4 -93.4)"/>
</clipPath>
</defs>
</svg>
